<svg width="500" height="500" version="1.0" xmlns="http://www.w3.org/2000/svg"><circle cx="250" cy="250" r="245" stroke="#000" stroke-width="10" fill="none"/><circle cx="250" cy="250" r="235" stroke="#fff" stroke-width="10" fill="none"/><path fill="#ffbd59" d="M250 20c-3.63.01-7.256.104-10.88.287-3.626.183-7.244.448-10.852.797-3.616.353-7.221.791-10.809 1.312a231.623 231.623 0 0 0-21.365 4.15 228.133 228.133 0 0 0-10.51 2.829 234.206 234.206 0 0 0-10.365 3.322 230.69 230.69 0 0 0-39.547 18.069 222.207 222.207 0 0 0-9.297 5.66 227.95 227.95 0 0 0-9.02 6.094 226.944 226.944 0 0 0-17.12 13.431 223.263 223.263 0 0 0-8.069 7.309 233.227 233.227 0 0 0-7.713 7.683 232.852 232.852 0 0 0-7.338 8.036 236.779 236.779 0 0 0-6.949 8.376 235.595 235.595 0 0 0-6.547 8.698 233.728 233.728 0 0 0-6.129 8.994 231.465 231.465 0 0 0-15.74 28.584 231.95 231.95 0 0 0-8.172 20.172 224.184 224.184 0 0 0-3.36 10.353 227.948 227.948 0 0 0-5.24 21.12A234.184 234.184 0 0 0 23.116 216a228.19 228.19 0 0 0-1.35 10.803 222.288 222.288 0 0 0-.843 10.853h458.265c-.198-3.63-.48-7.244-.843-10.86-.366-3.608-.816-7.213-1.354-10.802a227.487 227.487 0 0 0-1.865-10.728 226.333 226.333 0 0 0-2.371-10.625 228.37 228.37 0 0 0-6.233-20.86 230.627 230.627 0 0 0-8.177-20.177 229.117 229.117 0 0 0-4.797-9.77 226.516 226.516 0 0 0-5.25-9.537 234.124 234.124 0 0 0-5.697-9.281 229.864 229.864 0 0 0-6.135-8.995 231.275 231.275 0 0 0-6.547-8.699 232.607 232.607 0 0 0-14.299-16.416 233.095 233.095 0 0 0-15.785-14.994 236.947 236.947 0 0 0-8.408-6.918 225.904 225.904 0 0 0-8.729-6.51 227.948 227.948 0 0 0-9.02-6.093 225.827 225.827 0 0 0-9.302-5.662 234.899 234.899 0 0 0-9.563-5.213 226.043 226.043 0 0 0-9.79-4.75 228.387 228.387 0 0 0-30.585-11.412 226.573 226.573 0 0 0-10.515-2.827 231.573 231.573 0 0 0-21.37-4.142c-3.593-.52-7.197-.959-10.806-1.307-3.615-.355-7.236-.62-10.861-.797A223.13 223.13 0 0 0 250 20Z"/><path fill="#fff" d="M231.482 93.22c-37.2-.19-85.957.525-104.332 1.764-2.718.182-6.12.407-7.562.495-5.077.313-10.06.735-12.754 1.074-1.5.188-2.799.27-2.887.181-.088-.089-.718.042-1.406.282-.681.238-1.988.437-2.9.437-.906 0-2.245.137-2.97.297-.723.163-2.25.496-3.384.74-2.021.438-7.37 3.081-9.277 4.588-.547.432-1.532.755-2.776.9-4.317.517-8.103 1.302-8.713 1.81-.594.488-.6 1.367-.021 2.247.48.73.344 1.443-1.787 9.5-1.333 5.057-4.182 17.44-5.926 25.758-1.303 6.213-1.698 11.571-1.062 14.228.354 1.474.338 2.374-.116 6.4-.546 4.872-.64 9.178-.224 10.241a.758.758 0 0 0 .181.272l-.468 6.017-.352-.008.219 2.488c.161 1.844.114 2.615-.184 2.97-.308.369-.353 1.885-.207 6.827.176 5.907.15 6.439-.412 7.537-.328.652-.965 1.434-1.408 1.74-2.307 1.594-3.221 2.66-3.701 4.311-.33 1.131-.441 1.718-.192 2.065l.278 3.654c-.003.001-.063-.005-.065-.004-.464.47.64 3.198 1.739 4.297 1.724 1.724 2.733 2.12 6.222 2.447a75.192 75.192 0 0 1 5.627.752c1.36.255 3.444.602 4.631.775 1.187.176 5.218.818 8.953 1.422 6.192 1.011 10.608 1.76 20.92 3.563 4.079.713 4.268.666 4.88-1.225.2-.62.855-2.104 1.448-3.29l1.084-2.163.86 3.281c2.827 10.818 10.912 18.974 21.328 21.532 3.744.912 9.604.915 12.89.004 2.896-.802 6.765-2.583 9.182-4.223 4.864-3.301 9.35-9.427 11.95-16.313.906-2.396 1.722-3.39 2.528-3.078.434.167.486.484.307 2.004-.192 1.704-.159 1.82.508 1.996.385.104 10.359.198 22.156.203 11.797.005 29.093.141 38.426.301 9.339.156 26.494.434 38.125.61 28.245.428 51.131.88 62.969 1.246 21.286.661 40.762 1.082 49.964 1.082h9.682l.104-1.201c.062-.656.34-1.887.62-2.735l.51-1.533 1.792 3.72c2.218 4.6 3.75 6.88 6.687 9.954 4.333 4.53 9.787 7.53 15.678 8.619.682.124 2.556.244 4.166.26 10.61.12 19.525-5.104 24.85-14.563 1.02-1.806 1.988-3.29 2.161-3.29.172 0 .548.416.834.927.624 1.088.347 1.072 7.249.463 2.854-.25 7.04-.621 9.302-.819 3.235-.286 4.271-.494 4.875-.968 1.13-.891.832-1.707-1.115-3.067-.202-.14-.36-.18-.547-.299l-.224-4.427c.34-.184.46-.504.46-1.098 0-.32-.056-.502-.228-.646l.785-2.862c.303-.088.532-.215.629-.402.417-.787.683-2.704.719-5.172.042-2.376-.333-3.312-3.514-8.87l-1.547-2.698 1.4-1.14-.808-4.142c-.448-2.276-.89-5.182-.988-6.453-.224-2.822-.704-6.197-1.131-7.916-.543-2.193-2.765-3.938-7.969-6.252a253.315 253.315 0 0 1-3.86-1.732c-3.463-1.61-17.557-6.433-23.984-8.21-3.209-.884-13.416-3.462-17.072-4.306-2.86-.661-5.183-1.521-6.61-2.437-2.24-1.438-3.583-1.896-4.906-1.688-.749.12-1.728.005-2.662-.312-.817-.276-1.748-.419-2.082-.315-.448.142-.922-.17-1.89-1.254-.71-.797-2.267-2.233-3.453-3.193a1348.234 1348.234 0 0 1-8.602-7.004c-1.041-.86-3.843-3.022-6.219-4.808-6.541-4.907-16.02-11.959-19.134-14.235-4.516-3.29-22.027-14.749-24.387-15.957-1.198-.615-2.585-1.407-3.092-1.765-3.328-2.35-10.594-5.111-16.818-6.387-4.115-.839-2.91-.718-18.364-1.88-6.245-.467-14.929-.86-31.793-1.433-8.278-.28-19.393-.444-31.793-.507zm-10.357 1.903c23.722.077 50.609.631 64.219 1.408 22.702 1.303 28.385 2.005 33.953 4.21 2.337.926 4.937 2.322 4.937 2.655h-.006c0 .244-.427.318-.64.11-.182-.177-11.63-1.308-18.957-1.875-16.948-1.319-68.48-2.458-102.568-2.276l-20.463.11-.163-.649c-.089-.348-.114-1.253-.062-2.004l.098-1.365 17.595-.234c6.595-.09 14.15-.116 22.057-.09zm-41.89.084c.129.068.234 1.018.234 2.105 0 1.814-.061 1.994-.698 2.12-.38.078-7.292.292-15.353.484-8.063.188-18.486.475-23.152.637-4.667.161-11.266.379-14.662.488-3.396.11-6.661.234-7.254.275-.595.043-2.403.163-4.012.272-1.615.105-3.557.26-4.322.338-1.595.173-7.26.547-8.182.547-.339 0-1.934.114-3.547.256-5.427.473-8.059.59-7.912.345.084-.13 1.441-.896 3.025-1.693 2.63-1.328 3.253-1.507 7.2-2.065 10.656-1.494 24.077-2.488 43.832-3.248 14.182-.541 34.448-1.048 34.802-.861z"/><path d="M231.482 93.22c-37.2-.19-85.957.525-104.332 1.764-2.718.182-6.12.407-7.562.495-5.077.313-10.06.735-12.754 1.074-1.5.188-2.799.27-2.887.181-.088-.089-.718.042-1.406.282-.681.238-1.988.437-2.9.437-.906 0-2.245.137-2.97.297-.723.163-2.25.496-3.384.74-2.021.438-7.37 3.081-9.277 4.588-.547.432-1.532.755-2.776.9-4.317.517-8.103 1.302-8.713 1.81-.594.488-.6 1.367-.021 2.247.48.73.344 1.443-1.787 9.5-1.333 5.057-4.182 17.44-5.926 25.758-1.303 6.213-1.698 11.571-1.062 14.228.354 1.474.338 2.374-.116 6.4-.546 4.872-.64 9.178-.224 10.241.224.579.476.608 4.146.504l3.903-.11v2.794c0 1.9-.12 2.868-.387 3.035-.213.13-2.167.2-4.344.146l-3.957-.088.219 2.489c.161 1.844.114 2.614-.184 2.968-.308.37-.353 1.886-.207 6.829.176 5.906.15 6.438-.412 7.537-.328.652-.965 1.433-1.408 1.74-2.307 1.593-3.221 2.66-3.701 4.31-.734 2.516-.674 2.569 3.025 2.485 3.03-.067 3.26-.026 5.047.906 2.104 1.104 2.754 1.735 2.494 2.418-.219.572-1.223.588-6.441.104-2.162-.203-4.01-.291-4.104-.198-.464.47.64 3.198 1.739 4.297 1.724 1.724 2.733 2.12 6.222 2.447a75.192 75.192 0 0 1 5.627.752c1.36.255 3.444.602 4.631.776 1.187.176 5.218.818 8.953 1.422 6.192 1.01 10.608 1.76 20.92 3.562 4.079.713 4.268.666 4.88-1.225.2-.62.855-2.104 1.448-3.29l1.084-2.163.86 3.282c2.827 10.817 10.912 18.974 21.328 21.53 3.744.913 9.604.917 12.89.005 2.896-.801 6.765-2.583 9.182-4.223 4.864-3.301 9.35-9.427 11.95-16.312.906-2.396 1.722-3.39 2.528-3.078.434.166.486.483.307 2.003-.192 1.704-.159 1.82.508 1.997.385.104 10.359.197 22.156.203 11.797.005 29.093.14 38.426.3 9.339.156 26.494.434 38.125.61 28.245.428 51.131.88 62.969 1.246 21.286.661 40.762 1.082 49.964 1.082h9.682l.104-1.201c.062-.656.34-1.887.62-2.735l.51-1.533 1.792 3.72c2.218 4.6 3.75 6.88 6.687 9.954 4.333 4.53 9.787 7.53 15.678 8.62.682.123 2.556.243 4.166.259 10.61.12 19.525-5.104 24.85-14.563 1.02-1.806 1.988-3.29 2.161-3.29.172 0 .548.417.834.927.624 1.088.347 1.072 7.249.463 2.854-.25 7.04-.621 9.302-.818 3.235-.287 4.271-.494 4.875-.969 1.13-.89.832-1.706-1.115-3.066-1.735-1.203-2.77-1.584-5.26-1.922-1.453-.198-3.078-1.35-3.078-2.184 0-.875 1.016-1.026 4.24-.64 3.438.411 3.787.312 3.787-1.079 0-.801-.078-.836-2.546-1.191-3.767-.541-3.934-.59-3.934-1.203 0-.434 1.03-1.919 1.324-1.903.036.005.827.209 1.76.463 2.375.636 4.229.607 4.582-.076.417-.787.683-2.704.719-5.172.042-2.376-.333-3.312-3.514-8.869l-1.547-2.7 1.4-1.14-.808-4.14c-.448-2.276-.89-5.183-.988-6.453-.224-2.823-.704-6.198-1.131-7.916-.543-2.194-2.765-3.94-7.969-6.252a253.315 253.315 0 0 1-3.86-1.733c-3.463-1.61-17.557-6.433-23.984-8.209-3.209-.885-13.416-3.462-17.072-4.306-2.86-.662-5.183-1.522-6.61-2.438-2.24-1.437-3.583-1.895-4.906-1.687-.749.12-1.728.005-2.662-.313-.817-.276-1.748-.418-2.082-.314-.448.14-.922-.172-1.89-1.254-.71-.798-2.267-2.234-3.453-3.194a1348.234 1348.234 0 0 1-8.602-7.004c-1.041-.86-3.843-3.022-6.219-4.808-6.541-4.907-16.02-11.959-19.134-14.235-4.516-3.29-22.027-14.749-24.387-15.957-1.198-.614-2.585-1.407-3.092-1.765-3.328-2.35-10.594-5.11-16.818-6.387-4.115-.839-2.91-.718-18.364-1.879-6.245-.468-14.929-.86-31.793-1.433-8.278-.28-19.393-.444-31.793-.508zm-10.357 1.903c23.722.077 50.609.631 64.219 1.408 22.702 1.303 28.385 2.005 33.953 4.21 2.337.926 4.937 2.322 4.937 2.655h-.006c0 .244-.427.318-.64.11-.182-.177-11.63-1.308-18.957-1.875-16.948-1.319-68.48-2.458-102.569-2.276l-20.463.11-.162-.649c-.089-.348-.114-1.253-.062-2.004l.098-1.365 17.595-.234c6.595-.09 14.15-.116 22.057-.09zm-41.89.084c.129.068.234 1.017.234 2.105 0 1.814-.061 1.994-.698 2.12-.38.078-7.292.292-15.353.484-8.063.188-18.486.475-23.152.637-4.667.161-11.266.379-14.662.488-3.396.11-6.661.234-7.254.275-.595.043-2.403.163-4.012.272-1.615.105-3.557.26-4.322.338-1.595.173-7.26.547-8.182.547-.339 0-1.934.114-3.547.256-5.427.473-8.059.59-7.912.345.084-.13 1.441-.896 3.025-1.693 2.63-1.328 3.253-1.507 7.2-2.065 10.656-1.494 24.077-2.488 43.832-3.248 14.182-.541 34.448-1.048 34.802-.861zm35.902 9.961c16.889.005 34.223.058 36.103.154 3.094.162 45.827.928 48.817.877l1.588-.027.183 1.275c.093.698.316 3.08.488 5.287.172 2.208.523 6.515.772 9.569 1.224 14.842 1.416 17.352 1.709 22.342.172 2.948.515 7.324.765 9.724a344.653 344.653 0 0 1 .793 9.293c.182 2.719.365 4.968.405 5.004.036.036 1.724.203 3.756.375 4.494.375 24.406 2.387 27.615 2.787a115.17 115.17 0 0 0 4.629.475c2.61.206 5.293.5 12.658 1.38 2.803.338 6.342.759 7.87.936 6.04.714 16.4 2.133 17.097 2.346l.74.223-.203-3.057c-.115-1.683-.36-4.974-.553-7.318-.255-3.182-.253-4.354.006-4.614.265-.266.354-.24.354.094 0 .244.197 2.88.441 5.848.632 7.76.023 31.041-1.066 40.593-.762 6.672-1.245 10.422-1.375 10.635-.214.339 2.265.631 5.396.631 1.484 0 3.13.083 3.66.193 1.027.202 1.294.85.48 1.162-.577.224-.604.224-.77.067-.074-.061-7.703-.277-16.954-.475-9.254-.198-22.837-.561-30.185-.816-7.35-.256-24.017-.59-37.043-.746-26.624-.318-51.865-.764-69.516-1.227-6.53-.173-20.146-.465-30.25-.654-24.041-.436-30.635-.667-30.766-1.067-.057-.177.068-.552.282-.828.358-.469 1.677-.489 16.134-.234 8.658.156 19.147.422 23.303.598 4.161.172 18.469.526 31.797.78 13.323.262 29.715.61 36.424.778 6.701.166 15.122.302 18.705.307h6.518l.134-5.016c.208-7.63-.267-44.276-.63-49a976.252 976.252 0 0 1-.49-6.79c-.813-12.646-3.745-49.678-3.948-49.882-.396-.396-29.962-.79-71.154-.953-28.543-.113-48.006-.306-48.11-.472-.094-.156-.11-.345-.039-.422.097-.097 16.541-.14 33.43-.135zm-37.018.137c2.001.068 2.262.264 1.684.62-.188.117-6.833.335-14.772.491-21.369.412-37.214 1.36-48.843 2.918-1.782.239-3.866.51-4.631.598-5.006.604-12.51 2.662-15.494 4.252-4.672 2.489-6.63 5.332-12.823 18.613-4.896 10.495-5.651 12.296-5.771 13.703-.142 1.656-.906 4.078-1.744 5.531-.323.563-.588 1.083-.588 1.156 0 .078 9.201.135 20.445.135 11.25 0 28.297.147 37.89.328 9.595.178 24.404.423 32.909.543 16.328.223 16.482.241 16.482 1.641h-.004c0 .412-.204.561-.693.525-3.473-.266-62.443-1.364-89.522-1.666-9.974-.114-18.202-.314-18.28-.44-.078-.123.12-.77.443-1.437.324-.666.979-2.347 1.459-3.738.718-2.09.806-2.64.5-3.135-.318-.505-.182-.99.886-3.168.692-1.412 2.435-5.14 3.88-8.28 3.41-7.408 6.014-12.593 7.546-15.015 2.921-4.626 8.058-7.664 15.85-9.36 10.613-2.314 31.842-3.932 61.066-4.661 6.383-.161 10.124-.222 12.125-.154zm127.219 1.263c.801.072 3.192.276 5.312.457 14.156 1.194 18.703 1.928 25.157 4.053 2.042.667 4.656 1.697 5.812 2.285 1.161.59 2.375 1.07 2.703 1.07.328 0 .596.14.596.307 0 .526-1.324.296-2.781-.48-2.97-1.583-11.418-3.967-17.44-4.922-1.525-.239-4.93-.655-7.56-.92-2.63-.261-5.831-.612-7.102-.772a147.824 147.824 0 0 0-4.398-.48c-1.152-.104-2.017-.312-1.924-.459.09-.15.822-.212 1.625-.139zm4.908 4.692 1.139.213c.625.114 2.735.412 4.683.652 4.38.541 9.151 1.281 10.791 1.668.678.161 2.278.53 3.547.822 4.803 1.099 9.449 2.874 12.506 4.77 2.301 1.432 11.912 7.937 13.578 9.197 6.964 5.25 16.636 14.308 18.172 17.018l.969 1.707.088-3.082c.098-3.391.484-4.427.79-2.11.443 3.35.985 14.671.854 17.77-.041.906-.338.964-3.431.636-.594-.062-4.343-.47-8.332-.902-3.99-.432-8.506-.912-10.032-1.062-3.385-.334-8.005-.849-9.261-1.036-3.078-.458-9.1-1.13-14.047-1.568-3.14-.276-7.238-.692-9.104-.926-1.87-.229-4.166-.506-5.11-.617l-1.712-.185-.531-2.996c-.292-1.651-1.225-8-2.074-14.11-.85-6.115-1.896-13.32-2.323-16.02-.428-2.697-.864-6.014-.968-7.374zm52.477 33.24c-.643.035-.95.122-1.035.266-.443.708-2.573 9.634-2.573 10.78 0 1.444.51 1.782.979.651.354-.837.368-.843.488-.156.163.953.72 1.115 5.94 1.725 2.462.292 5.38.647 6.482.787h.002c3.192.421 3.197.417 3.494-1.522.584-3.842-.334-7.896-2.225-9.865-1.697-1.765-3.874-2.438-8.5-2.625-1.432-.06-2.41-.076-3.052-.041zm16.896 3.578c.459 0 4.678 4.329 8.276 8.49 1.469 1.698 3.302 3.615 4.08 4.26.77.641 1.4 1.304 1.4 1.465 0 .308-1.011.409-1.291.133-.09-.088-2.557-.374-5.496-.63-5.244-.46-6.052-.635-6.713-1.433-.437-.53-1.094-9.161-.834-10.916.115-.756.375-1.369.578-1.369zm-196.412 8.86 9.012.207c27.573.64 56.802 1.752 67.056 2.539 2.158.166 2.215.191 4.866 2.343 1.474 1.197 2.68 2.3 2.681 2.446 0 .152-.103.255-.234.234-1.265-.223-17.505-1.222-24.15-1.488a5047.39 5047.39 0 0 1-25.313-1.125c-9.25-.427-20.78-.874-25.62-.994l-8.798-.215.086-1.235c.041-.677.155-1.566.248-1.972zm103.656 1.115c.842.016 1.836.085 3.043.193 4.015.359 4.344.443 6.438 1.592 1.213.667 2.28 1.403 2.363 1.627.09.23-.003.747-.203 1.154h.002c-.365.736-1.964 1.188-2.453.694-.235-.23-3.37-.522-9.85-.913-3.468-.208-3.646-.255-4.474-1.125l-.866-.906 1.034-.863c1.305-1.098 2.442-1.503 4.966-1.453zm-189.838.549c2.095-.02 5.317.009 9.825.085 12.738.208 16.672.355 33.568 1.256 4.755.251 13.161.614 18.676.81a2155.427 2155.427 0 0 1 16.203.628c3.396.146 7.355.265 8.803.256 3.412-.016 22.556.837 31.634 1.41 7.323.464 12.87.708 34.575 1.547 6.957.266 15.155.688 18.212.937 3.052.246 8.541.662 12.192.922 3.647.26 9.27.749 12.5 1.082 3.224.339 7.042.72 8.49.846l2.62.222v2.778l-1.552.094c-.858.052-1.62.025-1.697-.053-.078-.077-1.188-.23-2.459-.344a413.65 413.65 0 0 1-6.484-.652 247.74 247.74 0 0 0-8.486-.742c-2.38-.156-5.572-.429-7.104-.602-2.87-.328-14.905-1.4-18.978-1.697a2564.29 2564.29 0 0 1-23.15-1.854c-19.866-1.724-40.959-2.842-58.032-3.088-5.348-.078-12.364-.28-15.588-.453-3.224-.172-9.34-.46-13.584-.64-4.245-.183-9.452-.459-11.572-.622-3.782-.29-15.382-.727-28.246-1.066-9.823-.255-13.426-.49-13.426-.86 0-.114.966-.181 3.06-.2zm189.94.289c-1.256-.011-2.547.749-2.547 1.5 0 .15 1.42.438 3.16.64 1.739.21 3.374.416 3.629.469.256.057 1.298.08 2.314.053 2.23-.058 2.51-.678.62-1.356-1.63-.582-5.53-1.29-7.176-1.306zm28.055.959c.7-.046 1.703-.017 3.34.066 5.451.281 7.53.682 10.29 1.969 2.694 1.254 3.272 1.918 2.663 3.052v.002c-.302.567-.645.733-1.52.733-.625 0-1.194-.063-1.272-.137-.224-.222-4.16-.805-8.453-1.248-4.03-.416-5.495-.865-6.87-2.11-.949-.854-.87-1.333.302-1.943.422-.219.819-.339 1.52-.384zm3.935 1.6c-.534.066-1.002.221-1.633.497-.828.359-1.453.71-1.39.772.068.068 2.484.35 5.37.636 2.886.282 5.302.572 5.376.645.344.344 1.879-.292 1.879-.781 0-.37-4.907-1.495-7.563-1.735-.903-.08-1.504-.102-2.039-.035zm-11.582 9.593c-.556-.14-.5.874-.4 17.937.042 7.98.094 17.77.109 21.76l.027 7.25 6.637.063c14.333.124 44.081.796 51.545 1.16v.006c11.735.572 12.277.572 12.615-.069.156-.296.433-2.14.615-4.087a414.29 414.29 0 0 1 .791-7.563c.724-6.333 1.11-12.353 1.319-20.713l.193-7.752-3.053-.223c-1.682-.125-3.752-.348-4.605-.505-2.844-.51-13.192-1.657-23.77-2.62-3.057-.28-6.598-.62-7.869-.755-1.277-.14-3.844-.401-5.715-.582a300.22 300.22 0 0 1-5.865-.637c-1.354-.172-6.493-.67-11.416-1.113-4.926-.448-9.229-.924-9.574-1.065a9.266 9.266 0 0 0-1.307-.404c-.106-.024-.198-.068-.277-.088zm141.287 1.176c.98.063 2.135.394 4.002 1.027 1.776.597 3.74 1.203 4.36 1.344.623.14 1.536.587 2.027 1 .488.41 1.487.945 2.213 1.185 1.561.516 2.019 1.392 1.732 3.313-.156 1.027.001 1.776.73 3.61.511 1.275 1.511 4.301 2.22 6.728.707 2.428 1.41 4.659 1.566 4.955.453.87-.222.641-.826-.281-.298-.454-1.345-1.694-2.334-2.756-1.71-1.839-1.782-1.98-1.5-2.953.41-1.448.352-3.184-.184-5.506-.776-3.359-.86-3.478-3.63-4.854-3.37-1.676-9.831-3.854-11.071-3.734-1.401.14-1.418.729-.027.738 2.308.016 12.42 3.995 13.207 5.2.66 1.009 1.584 8.822 1.043 8.822-.162 0-1.182-.698-2.266-1.551-1.083-.85-3.48-2.396-5.318-3.432-1.843-1.032-3.787-2.21-4.323-2.61-.864-.646-6.093-6.47-6.693-7.448-.432-.704.407-1.58 2.127-2.22 1.163-.437 1.966-.64 2.945-.577zm-64.894 5.207c1.136.024 2.97.212 5.879.574 2.652.328 6.762.824 9.136 1.104 2.38.28 4.453.64 4.62.796.182.178-.104.627-.776 1.194-1.125.964-1.474 1.043-2.844.63-.47-.14-3.942-.626-7.713-1.074-3.777-.448-7.459-.884-8.177-.966-1.359-.162-2.146-.966-1.813-1.846.114-.297.552-.436 1.688-.412zm-.52 5.068c.099-.099 3.634.038 7.858.299 4.224.26 7.793.473 7.927.473.142 0-.548.937-1.521 2.084-.975 1.145-3 3.947-4.5 6.228-2.772 4.223-3.026 4.579-3.026 4.277 0-1.114-1.136-5.614-1.693-6.718-1.204-2.37-3.213-4.715-3.89-4.537-.377.1-.588-.005-.588-.287 0-.24-.167-.71-.375-1.038-.203-.328-.292-.682-.192-.78zM78.412 194.605c1.607-.023 4.078.118 7.531.42a850.47 850.47 0 0 0 11.11.907c2.464.172 6.212.51 8.332.755a189.217 189.217 0 0 0 6.965.647l3.097.213-1.625 2.474v-.006c-1.916 2.911-1.953 2.954-1.953 2.282 0-.287.372-1.079.818-1.756.45-.681.76-1.286.694-1.342-.068-.059-3.386-.278-7.375-.48-3.99-.203-7.809-.495-8.49-.65-.678-.151-2.137-.287-3.24-.298-1.105-.016-3.603-.23-5.555-.484a292.062 292.062 0 0 0-6.48-.76c-4.085-.417-6.179-.881-6.179-1.361 0-.351.743-.538 2.35-.56zm61.104 3.477h.843l-.193 1.928c-.105 1.061-.74 4.276-1.412 7.142-.667 2.864-1.333 5.321-1.473 5.457-.141.142-.53.093-.869-.1-.401-.23-2.839-.363-6.875-.39-4.35-.027-6.37-.15-6.627-.404-.28-.277-.083-.881.84-2.6 2.385-4.448 4.75-7.017 8.094-8.799 1.828-.973 6.161-2.234 7.672-2.234zm1.99 0c1.62 0 6.141 1.163 8.021 2.063 2.979 1.422 6.755 5.111 7.942 7.751.438.968 1.157 2.063 1.6 2.432l.8.678-1.469.65c-1.322.59-2.097.662-7.65.719l-6.176.062-.283-1.083c-.853-3.254-1.86-7.49-2.187-9.188-.208-1.068-.468-1.999-.588-2.072-.235-.14-.099 8.698.181 11.838l.172 1.968 2.365-.193c1.302-.11 3.684-.26 5.297-.338l2.934-.135-2.008.47c-5.755 1.336-7.457 1.667-8.76 1.667-1.312 0-1.426.061-1.426.76 0 1.63-1.26 4.114-3.1 6.123-2.187 2.385-4.925 4.743-4.925 4.236 0-.197 1.339-1.912 2.979-3.814 2.708-3.134 3.66-4.614 4.26-6.614.198-.66.13-.69-1.495-.69-1.781 0-6.49-1.308-6.86-1.907-.234-.385.204-.328 4.204.525 2.807.599 4.182.474 4.432-.396.089-.296.307-2.9.488-5.787.36-5.619.887-9.725 1.252-9.725zm34.26 0h6.79v1.856l-5.327-.016c-5.047-.015-5.399-.057-6.786-.781-.806-.416-1.47-.83-1.47-.912 0-.08 3.06-.147 6.793-.147zm8.177.111c.839-.318 42.344 1.594 57.72 2.662 4.754.334 11.977.822 16.052 1.088 7.962.522 12.482.959 12.76 1.235.228.228-15.465.098-23.721-.2-21.208-.765-44.895-1.495-53.066-1.636-5.162-.088-9.51-.274-9.657-.426-.145-.145-.349-.77-.449-1.389-.145-.896-.07-1.167.361-1.334zm238.082.036c1.509-.047 3.032.12 4.528.511 5.828 1.526 10.485 5.03 12.912 9.729.63 1.213 1.347 2.28 1.603 2.38.63.246.588 1.02-.074 1.405-.51.297-.509.32-.004.33.745.009 1.01 1.218.988 4.484-.02 3.287-.656 5.948-2.156 9.016-1.12 2.285-3.879 5.645-4.644 5.645-.24 0-.432.11-.432.25 0 .26-4.335 2.89-5.408 3.275-.339.125-1.724.424-3.084.668-2.708.48-2.863.48-5.557.057-4.39-.692-7.843-2.418-10.984-5.485-2.943-2.885-4.932-7.853-5.15-12.894-.151-3.386.212-5.012 1.124-5.006.624 0 4.47 1.458 7.141 2.709a137.68 137.68 0 0 0 3.475 1.56c1.208.522 1.463.773 1.463 1.434 0 1.172-3.187 7.937-4.819 10.219-.774 1.088-1.354 2.145-1.281 2.347.068.21 1.948-1.39 4.178-3.547 4.322-4.172 5.63-5.155 6.859-5.15.953 0 3.495 1.885 7.365 5.457 3.448 3.183 4.344 3.918 4.547 3.72.077-.083-.476-.974-1.23-1.98-.76-1.009-2.025-3.353-2.823-5.213-.792-1.858-1.702-3.896-2.025-4.525-.75-1.464-.735-1.787.066-1.787.631 0 2.1-.64 8.569-3.738l2.972-1.422-2.623.013c-1.442.011-4.428-.087-6.636-.212-4.088-.24-5.358-.032-4.578.75.25.249 1.734.322 4.906.24 3.953-.106 4.385-.069 3.26.26-.714.202-2.906.52-4.87.703-1.964.182-3.833.475-4.156.646-.63.339-.75.766-.29 1.053.162.099.874 1.256 1.589 2.562a408.053 408.053 0 0 0 2.79 5.047c.827 1.463 1.5 2.77 1.5 2.91 0 1.262-5.036-6.369-5.733-8.693-.558-1.848-.934-2.28-1.98-2.28-.829 0-1.328.39-1.995 1.552-2.25 3.91-5.317 8.22-5.635 7.902-.188-.193 2.728-5.418 4.11-7.356.566-.8.932-1.515.806-1.587-.208-.131-2.397-.78-6.318-1.88-.975-.277-1.77-.627-1.77-.787 0-.464 3.088-.005 5.088.75 4.188 1.584 4.658 1.355 4.39-2.156-.192-2.521.251-2.918.575-.506.281 2.147 1.359 3.234 2.39 2.426.411-.322.4-.744-.109-3.76-.313-1.869-.855-4.821-1.205-6.572-.353-1.744-.65-3.547-.666-4.01-.014-.458-.48 1.604-1.037 4.582-1.458 7.828-1.834 8.84-3.088 8.266-.474-.217-1.885-.234-4.271-.057-2.838.214-4.057.168-5.994-.218-2.594-.52-3.176-.752-3.176-1.272 0-.65 2.951-5.265 4.426-6.916 3.25-3.649 7.656-5.709 12.181-5.85zm-263.289 14.076c.423.032.782.227.967.576.407.756.407 4.15 0 6.963-.29 2.005-1.255 4.88-2.379 7.1-1.71 3.369-7.928 7.717-12.386 8.66-6.272 1.332-12.433-.532-17.266-5.22-2.145-2.082-3.484-4.331-4.656-7.857-.823-2.464-.96-3.317-.96-6.037 0-4.61-.03-4.583 4.344-3.031 4.171 1.484 9.636 3.874 9.772 4.27.099.3-4.475 8.417-6.266 11.12-.584.875-1.056 1.682-1.056 1.788 0 .11.948-.621 2.109-1.621 4.432-3.819 9.193-6.787 11.725-7.319.98-.202 1.004-.187.619.432-.37.595-.151.899 2.99 4.055 3.5 3.51 5.427 5.07 6.014 4.879.188-.063-.453-1.145-1.422-2.407-.964-1.26-2.072-3.104-2.463-4.093-.385-.995-1.015-2.323-1.39-2.954l-1.26-2.125-.584-.978 4.105-2.147c2.25-1.188 4.858-2.396 5.795-2.697.933-.299 1.97-.73 2.303-.959.437-.3.923-.43 1.345-.398zm-16.345 3.595c.24-.24.473.016.822.881.699 1.75 1.913 4.006 3.387 6.303.704 1.104 1.369 2.25 1.478 2.547.11.296.143.54.063.54-.239 0-3.328-3.827-4.235-5.243-1.136-1.787-1.974-4.569-1.515-5.028zm287.384.262c.21.02.338.073.338.15-.003.161-.578.292-1.285.292-1.521 0-1.473-.15.131-.4.32-.05.608-.062.816-.042zm-284.414.338c.242-.081.508-.075.608.084.088.145-.057.349-.323.447h-.002c-.65.25-.744.24-.744-.088 0-.192.22-.362.461-.443zm277.608 3.88c.558-.082 1.138.167 1.224.62.078.421-.11.541-.83.541-1.046 0-1.57-.542-.926-.963.162-.106.346-.17.532-.197zm2.148 1.339c.495.166 1.695.964 2.29 1.597.358.38.524.685.368.674-.412-.03-2.734-1.806-2.869-2.197-.04-.115.046-.13.211-.074z"/><path fill="#d40000" d="M64.28 159.07c-.028.003-.048.01-.061.024-.104.108-.306 2.1-.448 4.427-.14 2.328-.334 5.453-.433 6.942-.099 1.496-.09 3.067.021 3.506.16.64.339.76.881.613.375-.099 1.974-.186 3.557-.186 1.693 0 2.797-.12 2.693-.293a.341.341 0 0 1 .114-.466c.16-.1.354.066.431.363.079.303.142-.218.137-1.15-.005-.934-.067-1.386-.14-1.006-.157.822-.698.932-.735.156-.233-4.703-.214-5.74.119-5.166.199.339.444 1.373.547 2.31.147 1.251.21.706.24-2.101.037-2.83-.046-3.741-.312-3.574-.24.144-.304.057-.184-.256a.713.713 0 0 0-.936-.938c-.292.115-.396.057-.271-.152.13-.203-.005-.274-.344-.186-.322.084-.91-.185-1.406-.644-.468-.432-.938-.793-1.041-.793-.1 0-.658-.36-1.24-.803-.507-.387-1-.643-1.19-.627zm6.97 20.934-.771.36c-.422.193-.772.458-.772.583-.005.35-3.233.282-4.201-.088-.464-.177-1.233-.233-1.713-.13-.86.189-.871.22-.809 2.292.038 1.208-.083 2.282-.287 2.526-.29.35.063.38 2.174.178 2.775-.266 4.06-.31 4.973-.162.885.14 1.397-1.132 1.402-3.506z"/><path d="M20.922 237.656a235.602 235.602 0 0 0-.754 9.994h459.775a236.861 236.861 0 0 0-.754-9.994h-.002z"/><path fill="#fff" d="M20.166 247.656c-.057.782-.114 1.563-.166 2.344.036 8.885.588 17.74 1.65 26.568a229.837 229.837 0 0 0 12.422 51.672 228.739 228.739 0 0 0 10.6 24.416h410.656a229.8 229.8 0 0 0 10.6-24.416 229.837 229.837 0 0 0 7.707-25.474A230.417 230.417 0 0 0 480 250c-.016-.781-.035-1.562-.057-2.344z"/><path d="m334.99 266.338-25.668 63.23h13.815l2.394-6.562h20.229l2.459 6.562h13.75l-25.688-63.23zm-113.045 1.19c-42 0-42 62.894 0 62.894 41.979 0 41.979-62.895 0-62.895zm-104.103.081v61.96h12.375v-34.042l15.605 16.373 15.625-16.373-.084 34.041h12.375V267.61h-3.853L145.822 294.4l-24.062-26.79zm-78.246.938v61.021H71.16V317.36H51.783v-48.812zm47.187.002v61.02h12.188v-61.02zm196.93 0v42.666c0 3.416-2.647 6.144-6.147 6.144h-11.685v12.21h12.039c12.021 0 18.168-5.897 18.168-18.354v-42.666zm90.2 0v11.873h18.77c-7.333 16.292-14.688 32.77-22.02 49.146h40.874v-12.293H388.85l22-48.726zm50.77 0v11.873h18.77c-7.333 16.292-14.688 32.77-22.021 49.146h40.875v-12.293h-22.688l22-48.726zm-202.738 11.52c24.396 0 24.396 37.728 0 37.728-24.417 0-24.417-37.729 0-37.729zm113.733 15.624 5.54 15.875h-11.25zM44.672 352.656a230.341 230.341 0 0 0 7.578 13.973 232.253 232.253 0 0 0 8.531 13.414 228.395 228.395 0 0 0 9.432 12.791 233.027 233.027 0 0 0 10.297 12.11 230.51 230.51 0 0 0 22.974 21.945 231.437 231.437 0 0 0 25.782 18.574 229.973 229.973 0 0 0 13.79 7.9 227.55 227.55 0 0 0 14.303 6.94 231.135 231.135 0 0 0 14.75 5.931 233.464 233.464 0 0 0 15.12 4.897 227.679 227.679 0 0 0 15.427 3.838 226.784 226.784 0 0 0 15.65 2.765A229.967 229.967 0 0 0 250 480a229.967 229.967 0 0 0 31.693-2.268 227.703 227.703 0 0 0 15.65-2.763c5.187-1.1 10.33-2.381 15.428-3.84a233.288 233.288 0 0 0 15.12-4.895 231.135 231.135 0 0 0 14.75-5.933 231.61 231.61 0 0 0 28.091-14.838 231.437 231.437 0 0 0 25.778-18.572 228.457 228.457 0 0 0 11.87-10.579 226.4 226.4 0 0 0 11.104-11.369 228.024 228.024 0 0 0 10.297-12.109 231.11 231.11 0 0 0 9.438-12.793 232.172 232.172 0 0 0 8.527-13.41 227.214 227.214 0 0 0 7.582-13.973v-.002z"/><path fill="#fff" d="m340.422 388.39-13.602 33.5h7.313l1.27-3.48h10.708l1.313 3.48h7.293l-13.627-33.5zm-121.236.5v33h6.459v-17.583l16.353 18.271h1.729V389.62h-6.52v18.25l-16.314-18.978zm-56.33.397c-22.418.812-21.334 32.791 0 32.791 3.06 0 5.872-.772 8.351-2.168v-14.207h-6.541v9.729c-.604.082-1.228.168-1.812.168-12.48 0-13.062-19.294 0-19.752 3.438-.083 5.52.626 6.771 1.187l.771-6.562c-.584-.187-3.707-1.311-7.54-1.186zm24.503.27v32.332l16.71.002v-6.46h-10.25v-6.48h8.5v-6.457h-8.5v-6.459h9.706v-6.478zm72.694 0v32.332l16.707.002v-6.46h-10.25v-6.48h8.5v-6.457h-8.5v-6.459h9.709v-6.478zm28.47 0 13.375 33.021h1.457l13.377-33.021h-7.459l-4.334 11-2.31 6.459-2.356-6.688-4.293-10.771zm52.254 14.394 2.94 8.397h-5.96z"/></svg>