<?xml version="1.0" encoding="UTF-8" standalone="no"?>
<svg
   width="500"
   viewBox="0 0 375 375"
   height="500"
   version="1.0"
   id="svg11"
   xmlns="http://www.w3.org/2000/svg"
   xmlns:svg="http://www.w3.org/2000/svg">
  <defs
     id="defs1">
    <clipPath
       id="a">
      <path
         d="M70.8 36h285v147h-285Zm0 0"
         id="path1" />
    </clipPath>
  </defs>
  <path
     d="M375 187.5c0 3.07-.074 6.137-.227 9.2a184.86 184.86 0 0 1-.675 9.179c-.301 3.055-.676 6.098-1.13 9.133a187.02 187.02 0 0 1-1.57 9.066 189.928 189.928 0 0 1-4.472 17.852 187.336 187.336 0 0 1-14.067 33.957 185.587 185.587 0 0 1-4.535 8.008 187.46 187.46 0 0 1-10.223 15.3 188.705 188.705 0 0 1-11.672 14.223 185.854 185.854 0 0 1-6.347 6.664 185.854 185.854 0 0 1-13.633 12.356 184.39 184.39 0 0 1-7.254 5.664 187.46 187.46 0 0 1-39.941 22.625 187.336 187.336 0 0 1-44.242 12.242c-3.035.453-6.078.828-9.133 1.129-3.055.3-6.113.527-9.18.675-3.062.153-6.129.227-9.199.227-3.07 0-6.137-.074-9.2-.227a184.86 184.86 0 0 1-9.179-.675c-3.055-.301-6.098-.676-9.133-1.13a187.02 187.02 0 0 1-9.066-1.57 189.928 189.928 0 0 1-17.852-4.472 187.336 187.336 0 0 1-33.957-14.067 185.587 185.587 0 0 1-8.008-4.535 187.46 187.46 0 0 1-15.3-10.223 188.705 188.705 0 0 1-14.223-11.672 185.854 185.854 0 0 1-6.664-6.347 185.854 185.854 0 0 1-12.36-13.633 188.074 188.074 0 0 1-10.96-14.781 188.78 188.78 0 0 1-4.922-7.773c-1.578-2.633-3.09-5.301-4.535-8.008a181.548 181.548 0 0 1-4.137-8.219 185.429 185.429 0 0 1-3.73-8.414 187.336 187.336 0 0 1-12.242-44.242 183.815 183.815 0 0 1-1.13-9.133 184.86 184.86 0 0 1-.675-9.18A185.128 185.128 0 0 1 0 187.5c0-3.07.074-6.137.227-9.2.148-3.066.375-6.124.675-9.179.301-3.055.676-6.098 1.13-9.133.448-3.035.972-6.058 1.57-9.066a189.928 189.928 0 0 1 4.472-17.852 187.336 187.336 0 0 1 14.067-33.957 185.587 185.587 0 0 1 4.535-8.008A187.46 187.46 0 0 1 48.57 61.582a185.854 185.854 0 0 1 6.347-6.664 185.854 185.854 0 0 1 13.633-12.36 188.074 188.074 0 0 1 14.781-10.96 188.78 188.78 0 0 1 7.773-4.922c2.633-1.578 5.301-3.09 8.008-4.535a181.548 181.548 0 0 1 8.219-4.137 183.522 183.522 0 0 1 8.414-3.73 187.336 187.336 0 0 1 44.242-12.242A184.86 184.86 0 0 1 178.301.226C181.363.074 184.43 0 187.5 0c3.07 0 6.137.074 9.2.227 3.066.148 6.124.375 9.179.675 3.055.301 6.098.676 9.133 1.13 3.035.448 6.058.972 9.066 1.57 3.012.601 6.004 1.273 8.98 2.015a188.683 188.683 0 0 1 17.61 5.344 188.886 188.886 0 0 1 8.586 3.312 185.429 185.429 0 0 1 8.414 3.73 181.548 181.548 0 0 1 8.219 4.138 185.587 185.587 0 0 1 8.008 4.535 187.46 187.46 0 0 1 29.523 21.895 185.854 185.854 0 0 1 6.664 6.347 185.854 185.854 0 0 1 12.356 13.633 184.39 184.39 0 0 1 5.664 7.254 187.46 187.46 0 0 1 22.625 39.941 187.336 187.336 0 0 1 12.242 44.242c.453 3.035.828 6.078 1.129 9.133.3 3.055.527 6.113.675 9.18.153 3.062.227 6.129.227 9.199Zm0 0"
     id="path2" />
  <path
     fill="#fff"
     d="M367.5 187.5c0 2.945-.074 5.89-.219 8.832a179.875 179.875 0 0 1-1.73 17.578 180.502 180.502 0 0 1-5.8 25.84 180.148 180.148 0 0 1-5.954 16.633 179.272 179.272 0 0 1-3.578 8.078 186.174 186.174 0 0 1-3.973 7.89 180.601 180.601 0 0 1-14.168 22.375 183.075 183.075 0 0 1-5.437 6.965 177.396 177.396 0 0 1-5.77 6.688 177.772 177.772 0 0 1-6.094 6.398 177.772 177.772 0 0 1-6.398 6.094 177.396 177.396 0 0 1-6.688 5.77 183.075 183.075 0 0 1-6.964 5.437 180.601 180.601 0 0 1-22.375 14.168 186.174 186.174 0 0 1-7.891 3.973 179.272 179.272 0 0 1-8.078 3.578 180.148 180.148 0 0 1-16.633 5.953 180.502 180.502 0 0 1-34.605 6.883c-2.934.289-5.872.504-8.813.648-2.941.145-5.887.219-8.832.219-2.945 0-5.89-.074-8.832-.219a179.875 179.875 0 0 1-17.578-1.73 181.735 181.735 0 0 1-17.328-3.445 180.148 180.148 0 0 1-25.145-8.309 179.272 179.272 0 0 1-8.078-3.578 186.174 186.174 0 0 1-7.89-3.973 180.601 180.601 0 0 1-22.375-14.168 183.075 183.075 0 0 1-6.965-5.437 177.396 177.396 0 0 1-6.688-5.77 177.772 177.772 0 0 1-6.398-6.094 177.772 177.772 0 0 1-6.094-6.398 177.396 177.396 0 0 1-5.77-6.688 183.075 183.075 0 0 1-5.437-6.964 180.601 180.601 0 0 1-14.168-22.375 186.174 186.174 0 0 1-3.973-7.891 179.272 179.272 0 0 1-3.578-8.078 180.148 180.148 0 0 1-5.953-16.633 180.502 180.502 0 0 1-6.883-34.605c-.289-2.934-.504-5.872-.648-8.813A179.975 179.975 0 0 1 7.5 187.5c0-2.945.074-5.89.219-8.832a179.875 179.875 0 0 1 1.73-17.578 181.735 181.735 0 0 1 3.445-17.328 180.148 180.148 0 0 1 8.309-25.145 179.272 179.272 0 0 1 3.578-8.078 186.174 186.174 0 0 1 3.973-7.89 180.601 180.601 0 0 1 14.168-22.375 183.075 183.075 0 0 1 5.437-6.965 177.396 177.396 0 0 1 5.77-6.688 177.772 177.772 0 0 1 6.094-6.398 174.403 174.403 0 0 1 6.398-6.094c2.18-1.977 4.41-3.902 6.688-5.77a183.075 183.075 0 0 1 6.964-5.437 180.601 180.601 0 0 1 22.375-14.168c2.598-1.387 5.23-2.711 7.891-3.973a179.272 179.272 0 0 1 8.078-3.578 180.148 180.148 0 0 1 25.145-8.309A181.735 181.735 0 0 1 161.09 9.45a178.912 178.912 0 0 1 17.578-1.73c2.941-.145 5.887-.219 8.832-.219 2.945 0 5.89.074 8.832.219a179.875 179.875 0 0 1 17.578 1.73 180.502 180.502 0 0 1 25.84 5.8 180.148 180.148 0 0 1 16.633 5.954 179.272 179.272 0 0 1 8.078 3.578 186.174 186.174 0 0 1 7.89 3.973 180.601 180.601 0 0 1 22.375 14.168 183.075 183.075 0 0 1 6.965 5.437 177.396 177.396 0 0 1 6.688 5.77 174.403 174.403 0 0 1 6.398 6.094 177.772 177.772 0 0 1 6.094 6.398c1.977 2.18 3.902 4.41 5.77 6.688a183.075 183.075 0 0 1 5.437 6.964 180.601 180.601 0 0 1 14.168 22.375c1.387 2.598 2.711 5.23 3.973 7.891a179.272 179.272 0 0 1 3.578 8.078 180.148 180.148 0 0 1 8.309 25.145 181.735 181.735 0 0 1 3.445 17.328 178.912 178.912 0 0 1 1.73 17.578c.145 2.941.219 5.887.219 8.832Zm0 0"
     id="path3" />
  <path
     d="M341.496 264.492H33.504a172.756 172.756 0 0 0 5.684 10.48 174.19 174.19 0 0 0 6.398 10.06 171.296 171.296 0 0 0 7.074 9.593 174.77 174.77 0 0 0 7.723 9.082 172.883 172.883 0 0 0 17.23 16.46 173.578 173.578 0 0 0 19.336 13.93 172.48 172.48 0 0 0 10.344 5.926c3.516 1.86 7.09 3.594 10.727 5.204a173.351 173.351 0 0 0 11.062 4.449 175.098 175.098 0 0 0 11.34 3.672 170.759 170.759 0 0 0 11.57 2.879c3.887.828 7.801 1.52 11.738 2.074A172.475 172.475 0 0 0 187.5 360a172.475 172.475 0 0 0 23.77-1.7 170.777 170.777 0 0 0 11.738-2.073c3.89-.825 7.746-1.786 11.57-2.88 3.82-1.093 7.602-2.32 11.34-3.671a173.351 173.351 0 0 0 11.062-4.45 173.708 173.708 0 0 0 21.07-11.129 173.578 173.578 0 0 0 19.333-13.929 171.343 171.343 0 0 0 8.902-7.934 169.8 169.8 0 0 0 8.328-8.527 171.018 171.018 0 0 0 7.723-9.082 173.332 173.332 0 0 0 7.078-9.594 174.129 174.129 0 0 0 6.395-10.058c2.02-3.43 3.914-6.922 5.687-10.48Zm0 0"
     id="path4" />
  <path
     fill="#ffbd59"
     d="M359.957 185.738H15.125v.004h344.832v-.004Zm0 0"
     id="path5" />
  <path
     d="M359.39 178.242H15.692c-.242 2.492-.43 4.992-.566 7.496h344.832a177.646 177.646 0 0 0-.566-7.496Zm0 0"
     id="path6" />
  <path
     fill="#ffbd59"
     d="M187.5 15c-2.723.008-5.441.078-8.16.215-2.719.137-5.434.336-8.14.598-2.712.265-5.415.593-8.106.984a173.717 173.717 0 0 0-16.023 3.113 171.1 171.1 0 0 0-7.883 2.121c-2.61.77-5.204 1.602-7.774 2.492a173.018 173.018 0 0 0-29.66 13.551 166.655 166.655 0 0 0-6.973 4.246 170.962 170.962 0 0 0-6.765 4.57 170.208 170.208 0 0 0-12.84 10.074 167.447 167.447 0 0 0-6.051 5.481 174.92 174.92 0 0 0-5.785 5.762 174.639 174.639 0 0 0-5.504 6.027 177.584 177.584 0 0 0-5.211 6.282 176.696 176.696 0 0 0-4.91 6.523 175.296 175.296 0 0 0-4.598 6.746 173.599 173.599 0 0 0-11.804 21.438 173.962 173.962 0 0 0-6.13 15.129 168.138 168.138 0 0 0-2.519 7.765 170.961 170.961 0 0 0-3.93 15.84A175.638 175.638 0 0 0 17.336 162a171.142 171.142 0 0 0-1.012 8.102 166.716 166.716 0 0 0-.633 8.14h343.7c-.149-2.722-.36-5.433-.633-8.144-.274-2.707-.613-5.41-1.016-8.102a170.615 170.615 0 0 0-1.398-8.047 169.75 169.75 0 0 0-1.778-7.969 171.278 171.278 0 0 0-4.675-15.644 172.97 172.97 0 0 0-6.133-15.133 171.838 171.838 0 0 0-3.598-7.328c-1.254-2.418-2.57-4.8-3.937-7.152a175.593 175.593 0 0 0-4.274-6.961 172.398 172.398 0 0 0-4.601-6.746 173.456 173.456 0 0 0-4.91-6.524 174.455 174.455 0 0 0-10.723-12.312 174.821 174.821 0 0 0-11.84-11.246 177.71 177.71 0 0 0-6.305-5.188 169.428 169.428 0 0 0-6.547-4.883 170.961 170.961 0 0 0-6.765-4.57 169.37 169.37 0 0 0-6.977-4.246c-2.36-1.36-4.75-2.66-7.172-3.91a169.532 169.532 0 0 0-7.343-3.563 171.29 171.29 0 0 0-22.938-8.559 169.93 169.93 0 0 0-7.887-2.12 173.68 173.68 0 0 0-16.027-3.106c-2.695-.39-5.398-.719-8.105-.98-2.711-.266-5.426-.465-8.145-.598A167.348 167.348 0 0 0 187.5 15Zm0 0"
     id="path7" />
  <path
     fill="#fff"
     d="M359.957 185.742H15.125c-.043.586-.086 1.172-.125 1.758.027 6.664.441 13.305 1.238 19.926a172.378 172.378 0 0 0 9.316 38.754 171.554 171.554 0 0 0 7.95 18.312h307.992a172.35 172.35 0 0 0 7.95-18.312 172.378 172.378 0 0 0 5.78-19.106A172.813 172.813 0 0 0 360 187.5c-.012-.586-.027-1.172-.043-1.758Zm0 0"
     id="path8" />
  <path
     d="M29.697 201.41h9.141v36.61h14.531v9.156H29.697ZM74.228 247.176h-9.14v-45.765h9.14ZM109.367 220.801l18.046-20.094h2.891v46.47h-9.281l.062-25.532-11.718 12.281-11.704-12.281v25.531h-9.28v-46.469h2.937ZM166.459 247.817c-3.93 0-7.375-.66-10.344-1.985-2.961-1.32-5.422-3.101-7.39-5.343a22.93 22.93 0 0 1-4.423-7.578 26.227 26.227 0 0 1-1.468-8.672c0-2.97.488-5.86 1.468-8.672a22.961 22.961 0 0 1 4.422-7.594c1.969-2.238 4.43-4.02 7.39-5.344 2.97-1.32 6.415-1.984 10.345-1.984 3.925 0 7.367.664 10.328 1.984 2.969 1.324 5.43 3.106 7.39 5.344a22.695 22.695 0 0 1 4.422 7.594 26.328 26.328 0 0 1 0 17.344 22.665 22.665 0 0 1-4.422 7.578c-1.96 2.242-4.421 4.023-7.39 5.343-2.961 1.325-6.403 1.985-10.328 1.985Zm0-9.469c2.601 0 4.843-.508 6.718-1.531 1.875-1.031 3.364-2.383 4.47-4.063a15.179 15.179 0 0 0 2.25-5.531 15.899 15.899 0 0 0 0-6.016 15.197 15.197 0 0 0-2.25-5.546c-1.106-1.688-2.595-3.04-4.47-4.063-1.875-1.031-4.117-1.547-6.718-1.547-2.606 0-4.852.516-6.735 1.547-1.875 1.023-3.37 2.375-4.484 4.063a15.237 15.237 0 0 0-2.234 5.546c-.375 2-.375 4.008 0 6.016.382 2 1.128 3.844 2.234 5.531 1.113 1.68 2.61 3.032 4.484 4.063 1.883 1.023 4.13 1.531 6.735 1.531ZM199.41 247.176v-9.156h8.765c1.32 0 2.422-.445 3.297-1.344.875-.894 1.313-1.984 1.313-3.265v-32h9.28v32c0 4.656-1.14 8.117-3.421 10.375-2.281 2.261-5.684 3.39-10.203 3.39ZM231.992 247.176l19.25-47.422h.969l19.265 47.422h-10.312l-1.844-4.922h-15.172l-1.797 4.922Zm15.484-13.5h8.438l-4.156-11.906ZM308.653 247.176h-30.656c2.77-6.144 5.53-12.3 8.28-18.469 2.759-6.164 5.505-12.296 8.235-18.39h-14.078v-8.906h27.703l-16.5 36.546h17.016ZM346.73 247.176h-30.656c2.77-6.144 5.532-12.3 8.282-18.469 2.758-6.164 5.504-12.296 8.234-18.39h-14.078v-8.906h27.703l-16.5 36.546h17.016Zm0 0"
     id="path9" />
  <path
     d="M284.484 182.855a4.009 4.009 0 0 1-.699-.187c-.11-.05-.652-.168-1.203-.258-.55-.094-1.047-.2-1.102-.242-.054-.043-.574-.16-1.152-.258-.578-.101-1.074-.21-1.101-.246-.028-.035-.547-.148-1.153-.25-.605-.101-1.125-.215-1.152-.254-.027-.035-.524-.148-1.102-.246-.578-.101-1.074-.21-1.101-.25-.028-.035-.543-.144-1.153-.246-.605-.102-1.12-.219-1.148-.258-.027-.039-.547-.156-1.152-.258-.606-.101-1.125-.214-1.153-.25-.105-.136-1.347-.273-1.625-.175-.152.054-.277.128-.277.164 0 .039-.149.156-.328.261-.176.106-.383.274-.453.371-.075.102-.18.184-.243.184-.058 0-.21.102-.335.227a5.311 5.311 0 0 1-.5.425 6.81 6.81 0 0 0-.493.403 7.16 7.16 0 0 1-.66.504c-.445.3-.445.3-1.746.273-.719-.016-1.394-.07-1.504-.117-.11-.05-1.527-.164-3.152-.254-1.629-.094-3.047-.207-3.156-.254-.11-.05-1.575-.164-3.254-.254-1.684-.09-3.149-.2-3.258-.246-.11-.05-1.598-.164-3.305-.254-1.707-.094-3.195-.207-3.304-.254-.227-.094-5.442-.402-6.782-.402-.476.004-.898-.043-.93-.098-.081-.129-6.093-.136-6.335-.008-.098.051-.739.168-1.426.262-.692.094-1.277.207-1.305.246-.027.043-.633.16-1.351.262-.715.102-1.332.223-1.368.277-.09.133-3.628.106-3.671-.03-.02-.06-.282-.106-.582-.106-.766 0-3.418-.29-3.622-.395-.097-.047-.691-.164-1.324-.258-.633-.094-1.195-.203-1.25-.242-.054-.043-.496-.156-.976-.258-.485-.097-.88-.207-.88-.242s-.382-.148-.85-.254c-.466-.101-.852-.219-.852-.262 0-.039-.301-.148-.672-.242-.371-.094-.719-.207-.778-.25-.054-.043-.347-.16-.652-.258-.305-.101-.574-.21-.601-.246-.028-.039-.31-.148-.625-.246-.317-.097-.579-.21-.579-.254 0-.043-.27-.156-.597-.257-.332-.102-.602-.215-.602-.258 0-.043-.238-.157-.527-.25-.29-.098-.547-.207-.574-.242-.028-.04-.368-.153-.754-.254-.383-.102-.762-.235-.84-.293-.176-.137-3.07-.11-3.363.03-.11.052-.809.173-1.555.267-.742.093-1.375.203-1.402.242-.028.035-.5.148-1.051.246-.551.097-1.047.21-1.102.254-.054.047-.46.16-.902.254-.442.097-.844.21-.903.25-.152.12-.554.195-1.57.308-.734.078-1.308.063-2.71-.074-.977-.094-1.778-.207-1.778-.25 0-.043-.137-.078-.309-.078-.547 0-3.238-.317-3.445-.402-.11-.047-1.102-.165-2.203-.258-1.102-.098-2.027-.207-2.055-.242-.027-.04-.703-.149-1.504-.247-.797-.097-1.472-.207-1.5-.246-.027-.039-.488-.156-1.027-.254-.535-.101-.977-.214-.977-.253 0-.04-.238-.13-.527-.204-.457-.117-1.535-.636-1.676-.808a2.255 2.255 0 0 0-.3-.23c-.715-.481-3.083-2.837-4.407-4.387-.199-.235-1.265-1.41-1.953-2.153-.164-.18-.57-.636-.902-1.011a58.334 58.334 0 0 0-1.028-1.145c-.234-.25-.425-.492-.425-.535 0-.04-.203-.266-.45-.5-.25-.234-.449-.465-.449-.512 0-.05-.125-.21-.277-.363a14.938 14.938 0 0 1-.7-.766c-.23-.273-.577-.676-.773-.898-.195-.219-.355-.438-.355-.488 0-.047-.114-.172-.25-.282-.137-.11-.25-.234-.25-.281 0-.043-.14-.234-.317-.418-.445-.48-.617-.766-.55-.934.046-.125.16-.117.785.055.402.113.773.242.832.285.054.047.394.164.754.262.355.102.672.207.699.242.027.035.344.149.703.254.355.106.762.25.898.32.137.07.489.18.778.247.289.066.527.156.527.203 0 .129.262.101.379-.043.055-.067.152-.801.215-1.63.058-.827.152-1.71.203-1.956.05-.25.168-.95.258-1.559.09-.605.199-1.148.242-1.203.043-.055.137-.352.207-.652.07-.305.21-.711.313-.903.101-.195.183-.382.183-.425 0-.04.266-.63.59-1.305.926-1.953 1.113-2.367 1.113-2.484 0-.06.04-.106.082-.106.047 0 .16-.246.258-.55.094-.305.207-.555.25-.555.043 0 .14-.192.215-.426.074-.235.187-.492.254-.578.062-.082.176-.328.246-.551a7.53 7.53 0 0 1 .633-1.328c.129-.211.336-.028.457.406.066.23.16.512.207.621.082.188.265.895.691 2.66.098.418.227.848.285.957.059.11.18.535.274.95.094.41.207.796.25.851.047.059.137.375.203.707.066.332.176.691.242.8.07.114.184.474.254.806.074.332.188.714.258.855.066.137.18.496.25.8.07.305.16.598.203.653.043.055.156.395.25.754.32 1.18.746 1.941 1.434 2.55.796.704.765.684 1.671 1.364.329.25.684.531.79.629.109.094.277.2.378.23.098.032.18.098.18.145 0 .043.149.176.328.293.785.508.93.605 1.028.688.058.05.238.175.402.28.164.106.332.25.379.321.043.07.12.125.172.125.054 0 .293.149.53.328.243.18.524.383.63.45.101.07.55.363.992.652.438.293.926.594 1.074.672.153.078.278.172.278.21 0 .04.18.149.398.25.223.098.402.212.402.25 0 .04.192.157.422.262.235.106.504.27.602.367.097.094.242.176.324.176.078 0 .18.059.223.13.043.073.261.214.48.316.219.101.457.246.531.32.075.074.176.137.227.137.2 0 .078-.325-.356-.961-.25-.364-.453-.696-.453-.739 0-.043-.078-.152-.18-.242-.097-.09-.242-.32-.32-.515-.074-.196-.172-.356-.214-.356-.043 0-.157-.144-.247-.324-.093-.18-.199-.352-.238-.379-.043-.027-.168-.234-.281-.457-.113-.227-.277-.469-.363-.54-.086-.073-.157-.19-.157-.26 0-.075-.07-.204-.156-.286a1.989 1.989 0 0 1-.297-.504c-.082-.191-.191-.375-.246-.41-.055-.031-.176-.227-.273-.434a2.796 2.796 0 0 0-.352-.566c-.098-.106-.18-.25-.18-.316 0-.07-.062-.188-.136-.266-.078-.074-.246-.336-.38-.574a31.288 31.288 0 0 0-.503-.899c-.32-.558-.582-1.105-.582-1.226 0-.047-.047-.086-.106-.086-.058 0-.175-.172-.261-.38-.086-.206-.188-.398-.227-.425-.035-.027-.152-.23-.254-.453-.101-.219-.215-.422-.254-.45-.039-.027-.148-.265-.25-.527-.097-.261-.21-.476-.254-.476-.043 0-.152-.196-.246-.43-.093-.234-.226-.492-.293-.574a2.26 2.26 0 0 1-.261-.504 2.246 2.246 0 0 0-.254-.5 2.467 2.467 0 0 1-.254-.527c-.07-.207-.164-.38-.203-.38-.043 0-.106-.1-.145-.226a10.2 10.2 0 0 0-.3-.726 6.104 6.104 0 0 1-.344-1.157c-.063-.355-.16-.742-.211-.851-.051-.11-.176-.766-.285-1.457-.2-1.32-.52-2.653-.758-3.164a5.26 5.26 0 0 1-.246-.805 5.033 5.033 0 0 0-.25-.8 5.51 5.51 0 0 1-.262-.802c-.07-.277-.152-.523-.191-.554-.036-.028-.141-.32-.239-.653-.097-.328-.222-.691-.285-.8a4.297 4.297 0 0 1-.234-.653c-.121-.418-.47-1.324-.793-2.058a7.777 7.777 0 0 1-.266-.754c-.07-.25-.187-.512-.258-.586a.444.444 0 0 1-.129-.274c0-.074-.136-.433-.3-.796-.164-.364-.301-.692-.301-.73 0-.044-.086-.24-.196-.438a2.98 2.98 0 0 1-.257-.715c-.067-.364-.07-.356.968-2.235.153-.273.375-.714.493-.976.12-.266.25-.477.285-.477.039 0 .129-.172.199-.379.074-.207.188-.445.258-.527.062-.082.18-.309.25-.5.074-.195.183-.398.242-.453.063-.055.313-.508.559-1.004.242-.496.504-.965.574-1.035.07-.074.129-.2.129-.281 0-.332.847-.372 1.047-.047.035.054.23.183.433.277.203.098.446.258.547.356.098.097.223.18.277.18.059 0 .29.132.516.3.23.164.473.3.54.3.07 0 .151.067.183.15.03.085.105.152.164.152.09 0 .383.171 1.105.648.086.059.305.195.488.305.184.109.461.304.614.425.152.125.316.227.37.227.052 0 .173.086.27.191.094.106.317.25.489.32.175.075.379.212.449.313.074.098.18.18.238.18.055 0 .23.101.383.226.152.125.426.317.61.426.183.114.43.27.546.352l.656.453c.243.164.5.355.567.418.07.066.215.148.328.184.11.035.2.097.2.14 0 .04.3.274.671.52.371.242.754.523.852.62.097.098.215.177.261.177.051 0 .2.101.34.226.137.121.403.316.586.426.184.11.434.27.551.351.863.61 1.785 1.16 2.445 1.465.196.09.375.2.403.242.086.133.988.399 1.148.336.227-.086.184-.52-.098-1.082-.136-.27-.25-.547-.25-.613 0-.07-.066-.18-.152-.246-.082-.07-.148-.188-.148-.266 0-.074-.133-.418-.293-.765-.16-.344-.325-.809-.364-1.028-.039-.222-.12-.464-.183-.543-.063-.082-.13-.66-.149-1.332-.035-1.171-.03-1.195.29-1.816.175-.344.406-.719.511-.836.102-.113.188-.258.188-.32 0-.067.09-.164.199-.223.11-.058.2-.16.2-.223 0-.066.085-.21.187-.324.105-.113.27-.433.367-.71.101-.274.215-.548.254-.602.12-.168.218-.953.21-1.684-.007-1.152-.566-2.07-1.956-3.234-.2-.168-.465-.395-.594-.508a34.438 34.438 0 0 0-.727-.602 32.382 32.382 0 0 1-.61-.496 11.206 11.206 0 0 0-.495-.402 7.72 7.72 0 0 1-.598-.527c-.117-.125-.25-.227-.293-.227-.043 0-.176-.102-.297-.227-.246-.25-.625-.574-1.203-1.027a12.823 12.823 0 0 1-.66-.555 48.622 48.622 0 0 0-.8-.703 97.63 97.63 0 0 1-.79-.672c-.14-.12-.457-.394-.7-.601-.745-.645-1.91-1.867-1.91-2.008 0-.07-.042-.133-.093-.133-.133 0-.773-1.195-.86-1.605-.038-.192-.124-.414-.187-.492-.144-.18-.125-5 .028-6.938.058-.746.152-2.394.21-3.664.059-1.27.168-2.578.247-2.91a23.54 23.54 0 0 0 .3-1.633c.086-.566.2-1.129.25-1.254.055-.125.168-.605.262-1.074.09-.465.2-.914.246-1.004.047-.086.156-.562.25-1.059.09-.5.195-.949.23-1.003.079-.122.434-1.758.72-3.317.113-.605.242-1.191.288-1.305.047-.109.16-.695.25-1.304.215-1.438.305-1.54 1.184-1.375.984.183 2.246.261 2.32.14.07-.117-.097-1.066-.246-1.375-.09-.183-.289-1.09-.644-2.91-.22-1.129-.29-2.828-.149-3.515.114-.555.59-1.727.809-1.996.05-.063.258-.36.46-.665.2-.304.391-.574.427-.601.03-.027.234-.274.453-.547.218-.273.488-.598.601-.723.114-.125.406-.465.656-.757.247-.29.563-.649.7-.793.281-.301.5-.645.5-.782 0-.05-.258-.289-.575-.527a18.575 18.575 0 0 1-.625-.492c-.027-.031-.3-.242-.601-.477a9.014 9.014 0 0 1-.754-.625c-.113-.11-.258-.203-.324-.203-.063 0-.164-.09-.223-.2-.058-.109-.16-.202-.219-.202-.16 0-.988-.778-1.562-1.465-.18-.215-.39-.457-.469-.543a1.91 1.91 0 0 1-.262-.426c-.07-.152-.156-.277-.191-.277s-.144-.203-.246-.45c-.106-.25-.227-.453-.274-.453-.046 0-.085-.05-.085-.113 0-.062-.13-.39-.293-.726-.36-.758-.907-2.032-.907-2.118 0-.035-.09-.257-.195-.492-.11-.238-.262-.605-.344-.824-.445-1.2-.617-1.613-.722-1.719-.063-.066-.176-.328-.25-.578-.075-.25-.164-.457-.203-.457-.036 0-.165-.215-.282-.476a9.383 9.383 0 0 0-.508-.93c-.164-.25-.37-.586-.46-.754-.094-.164-.231-.336-.305-.379-.074-.047-.137-.125-.137-.18 0-.09-.496-.867-.86-1.347-.597-.793-.843-1.157-.843-1.25 0-.059-.035-.106-.082-.106-.043 0-.281-.304-.524-.68-.242-.37-.523-.734-.62-.808-.098-.07-.176-.195-.176-.273 0-.079-.09-.2-.2-.27-.109-.07-.203-.164-.203-.21 0-.048-.156-.278-.347-.513-.196-.238-.352-.468-.352-.52 0-.05-.09-.148-.2-.218-.109-.066-.202-.187-.202-.262 0-.078-.11-.21-.25-.304-.137-.09-.25-.215-.25-.274 0-.062-.102-.219-.223-.347-.379-.391-.543-.598-.734-.93-.102-.172-.223-.313-.262-.313-.043 0-.145-.136-.23-.297-.227-.44-.993-.539-1.38-.175-.355.336-1.445 1.101-1.906 1.336-.175.093-.343.199-.37.234-.028.04-.255.148-.505.246-.246.098-.472.211-.5.246-.027.04-.32.153-.648.25a9.226 9.226 0 0 0-.805.27c-.11.047-.39.14-.629.199-.422.105-.71.348-.98.82-.125.219-.18.328-.445.91a10.56 10.56 0 0 1-.399.727c-.16.277-.34.605-.394.73-.243.524-.329.696-.508 1.028-.102.195-.192.43-.196.527 0 .098-.043.176-.09.176-.046 0-.163.215-.261.477-.098.261-.234.546-.305.628-.066.082-.183.332-.262.551-.074.223-.19.461-.261.535-.07.075-.125.172-.125.223 0 .05-.13.375-.285.723-.16.343-.325.742-.368.879-.043.14-.16.41-.261.601-.106.192-.188.387-.188.434 0 .047-.11.316-.242.601-.457.977-.508 1.934-.508 9.52 0 5.738-.027 7.015-.137 7.148-.19.235-1.132.73-1.75.926-.285.09-.609.203-.718.254-.11.05-.606.137-1.102.195-.496.059-.992.133-1.101.168-.243.074-.774.442-.88.606a2.073 2.073 0 0 1-.226.27c-.183.183-.746 1.394-.746 1.605 0 .332-.285.742-1.012 1.465-.418.418-.828.8-.914.855-.082.055-.418.305-.742.55-1.219.934-1.207.93-1.766.81-.921-.2-3.468-.356-3.601-.223-.09.09-.086.367.012 1.195.074.598.171 1.156.218 1.25.133.254.25 3.05.18 4.29l-.062 1.089-.915.918c-.503.5-.914.945-.914.984 0 .035-.09.16-.195.274-.105.117-.332.535-.5.93-.277.652-.309.828-.305 1.757 0 1.824-.199 6.528-.316 7.41-.11.84-.223 1.192-.414 1.32-.055.036-.578.094-1.164.133-1.445.094-1.945.313-2.277 1.004-.145.297-.305.922-.395 1.508-.082.555-.191 1.14-.242 1.309-.051.164-.164.797-.25 1.402-.086.61-.203 1.285-.262 1.508-.055.219-.187.945-.293 1.605-.11.665-.3 1.864-.43 2.665-.125.804-.257 1.503-.293 1.558-.03.055-.132.664-.222 1.352-.09.691-.207 1.332-.258 1.43-.055.097-.172.39-.262.652-.086.261-.222.511-.297.558-.078.043-.14.13-.14.188 0 .21-1.805 2.148-2.496 2.68a9.974 9.974 0 0 0-.563.464c-.117.11-.324.282-.457.38-.133.1-.441.335-.691.527-.246.191-.504.347-.574.347-.07 0-.125.043-.125.09 0 .05-.145.188-.325.3-.18.114-.414.266-.523.337-.106.07-.422.273-.7.453a9.67 9.67 0 0 0-.656.453 2.528 2.528 0 0 1-.449.277c-.168.082-.39.227-.496.325-.105.097-.246.175-.308.175-.067 0-.22.09-.344.196-.125.11-.38.25-.567.308-.187.063-.34.149-.34.192 0 .043-.19.164-.425.265-.235.106-.473.243-.528.301-.054.063-.257.172-.449.246-.191.074-.418.184-.5.25a2.64 2.64 0 0 1-.5.254c-.195.074-.375.168-.402.203-.028.04-.23.16-.45.27-.628.316-1.066.566-1.527.86-.234.148-.469.269-.523.269-.059 0-.106.039-.106.082 0 .047-.156.16-.347.25-.196.093-.352.207-.352.257 0 .051-.078.118-.176.149-.187.062-.457.234-.718.45-.434.359-1.11.82-1.204.82-.058 0-.105.046-.105.097 0 .055-.125.164-.277.242-.149.082-.516.371-.813.645l-.539.496-.098.89c-.054.493-.136.985-.187 1.094-.047.11-.16.676-.25 1.254-.086.582-.195 1.102-.238 1.156-.043.055-.133.372-.2.704a6.42 6.42 0 0 1-.296 1.007c-.098.223-.235.641-.301.93-.07.285-.164.524-.207.524-.047 0-.117.14-.153.316-.082.371-.53.816-1.097 1.098a7.374 7.374 0 0 0-.551.289c-.3.183-1.168.578-1.559.703-.218.07-.441.164-.496.203-.054.043-.37.152-.703.246-.328.098-.644.207-.7.25-.054.043-.347.156-.651.25-.301.09-.633.215-.739.273a5.32 5.32 0 0 1-.703.254c-.281.086-.555.188-.61.227-.054.043-.37.16-.702.258-.328.101-.645.215-.7.254-.054.039-.347.148-.652.242-.3.094-.687.234-.851.304-.165.075-.5.188-.743.25-.242.067-.535.18-.648.25-.117.075-.469.192-.79.262-.316.067-.573.156-.573.2 0 .038-.239.128-.528.199-.289.066-.683.203-.875.297-.191.093-.586.23-.875.296-.289.07-.527.157-.527.2 0 .039-.238.129-.527.191-.29.066-.653.184-.809.266-.156.082-.465.199-.691.257-.579.157-1.141.778-1.383 1.528-.074.234-.176.449-.219.484-.047.031-.156.438-.246.903-.086.464-.195.933-.242 1.046-.25.579-.383 3.41-.164 3.485.07.023.441.008.828-.04.383-.046 1.894-.195 3.351-.327 1.461-.133 2.793-.266 2.957-.297.165-.032 1.305-.13 2.536-.219 2.296-.168 2.699-.137 2.898.21.106.185.836 1.052 1.102 1.31.125.12.226.265.226.324 0 .062.078.168.172.242.191.14.594.601 1.078 1.23.164.215.414.516.55.668.138.153.407.461.603.688.265.308.421.406.648.402.36-.004 1.121-.164 1.406-.293.11-.054.582-.172 1.051-.262.469-.09.894-.199.95-.242.054-.043.507-.156 1.003-.254.496-.093.945-.21 1-.254.055-.042.508-.156 1.004-.253.492-.098.922-.207.95-.246.027-.04.48-.149 1.003-.25.52-.102.973-.215 1-.25.027-.04.477-.153 1-.254.524-.098.977-.211 1.004-.25.027-.04.477-.149 1-.25.523-.102.973-.215 1.004-.25.027-.04.477-.153 1-.254.523-.098.973-.211 1-.25.027-.035.457-.145.953-.243.496-.097.945-.21 1-.253.055-.043.508-.157 1.004-.25.496-.098.945-.211 1-.254.184-.145 1.05-.227 1.05-.102 0 .121-.39.492-.523.496-.043.004-.156.074-.25.156-.562.489-.761.653-.816.653-.035 0-.219.133-.41.3-.196.165-.38.301-.414.301-.032 0-.176.102-.317.227a9.18 9.18 0 0 1-.625.476c-.199.137-.48.352-.62.477-.141.125-.286.227-.321.227-.031 0-.215.132-.41.3-.192.164-.375.301-.41.301-.032 0-.192.11-.352.246-.535.461-.594.508-.89.7-.16.105-.383.273-.493.375-.105.101-.226.183-.262.183-.039 0-.199.113-.359.25-.535.461-.59.504-.887.7a4.31 4.31 0 0 0-.496.374c-.105.102-.226.184-.261.184-.036 0-.18.101-.32.226-.391.352-.641.547-.946.747-.281.183-.336.226-.875.687-.156.137-.316.246-.352.246-.03 0-.238.16-.46.352-.22.191-.43.347-.47.351-.038 0-.195.117-.35.258a9.375 9.375 0 0 1-.43.383c-.243.203-1.282.867-1.352.867-.035 0-.121.059-.195.129-.07.07-.325.195-.567.273-.242.079-.465.176-.496.22-.027.042-.41.148-.852.234-.437.085-.87.195-.96.246-.09.05-.676.164-1.301.25-.625.09-1.207.199-1.29.242-.085.047-.761.168-1.503.27-.742.097-1.371.21-1.399.245-.027.036-.636.149-1.351.25-.719.102-1.324.215-1.352.254-.027.04-.613.149-1.304.246-.688.098-1.274.211-1.301.25-.028.04-.637.153-1.352.254-.719.102-1.324.215-1.351.254-.028.035-.57.145-1.203.239-.633.093-1.227.21-1.317.261-.094.051-.703.168-1.355.266-.653.094-1.207.203-1.235.242-.027.035-.59.145-1.25.246-.664.098-1.226.211-1.254.25-.027.04-.566.149-1.203.246-.633.098-1.172.207-1.199.242-.027.04-.312.149-.629.247-.316.097-.574.21-.574.253 0 .04-.168.133-.375.208-.207.074-.465.21-.578.304-.11.094-.344.23-.524.301-.18.07-.328.164-.328.21 0 .044-.16.134-.355.2-.196.063-.38.172-.406.242-.028.07-.231.188-.454.262-.222.074-.43.188-.453.254-.027.07-.148.148-.273.18-.125.03-.387.168-.582.3-.196.133-.52.301-.719.375-.2.07-.363.16-.363.196 0 .035-.192.148-.426.254-.234.105-.484.246-.555.316a.487.487 0 0 1-.277.129c-.078 0-.223.078-.324.176a3.19 3.19 0 0 1-.504.355c-.586.336-1.535 1.399-2 2.242-.07.13-.164.239-.203.239-.04 0-.157.156-.258.351-.106.192-.219.352-.254.352-.031 0-.148.168-.258.375-.11.207-.277.433-.37.508-.099.07-.177.195-.177.27a.31.31 0 0 1-.125.222c-.07.043-.215.238-.324.43a3.066 3.066 0 0 1-.375.546c-.098.106-.18.239-.18.293 0 .266-1.046 1.243-1.41 1.313-.187.039-.449.12-.582.187-.191.094-.254.094-.285-.004-.023-.07-.148-.125-.281-.125-.262 0-1.168-.285-1.246-.394-.028-.04-.278-.152-.551-.254-.277-.106-.524-.215-.55-.25a2.038 2.038 0 0 0-.321-.234.756.756 0 0 1-.336-.524c-.04-.195-.11-.351-.156-.351-.051 0-.09-.114-.09-.254 0-.137.047-.25.101-.25.055 0 .098-.082.098-.184 0-.25.305-1.121.39-1.121.04 0 .153-.227.25-.5.102-.277.215-.504.258-.504.04 0 .133-.184.207-.406.075-.223.172-.43.215-.457.047-.028.18-.266.297-.524.117-.257.246-.492.285-.52.04-.026.153-.265.25-.526.098-.262.211-.477.246-.477.04 0 .149-.227.247-.504.101-.277.21-.5.25-.5.039 0 .152-.227.25-.504.101-.277.214-.5.253-.5.04 0 .149-.226.25-.504.098-.277.211-.5.254-.5.04 0 .133-.187.207-.414.079-.226.188-.43.246-.453.063-.023.2-.27.305-.543.106-.273.223-.5.262-.5.035 0 .148-.226.246-.5.102-.277.21-.504.25-.504.039 0 .152-.226.25-.5.102-.277.21-.504.246-.504.035 0 .148-.203.254-.449.102-.25.215-.453.254-.453.039 0 .152-.227.25-.504.098-.273.21-.5.246-.5.039 0 .148-.215.246-.477.098-.261.211-.5.25-.527.04-.027.168-.254.29-.504.378-.785.632-1.254.706-1.304.04-.028.153-.266.254-.528.098-.262.207-.476.246-.476.035 0 .149-.204.25-.45.102-.25.215-.453.25-.453s.125-.172.2-.379c.074-.207.218-.457.32-.554.101-.098.187-.239.187-.313 0-.074.11-.293.238-.488.133-.192.301-.516.372-.715.074-.2.168-.363.21-.363.079 0 .262-.32.684-1.18.113-.234.242-.426.285-.426.04 0 .16-.191.262-.425.102-.231.223-.47.27-.528.046-.055.234-.324.414-.597.457-.688.761-.844 1.648-.852.398-.004.727.031.727.082 0 .117.847.242 1.101.16.227-.07.5-.535.5-.848 0-.113.035-.207.078-.207.047 0 .168-.425.27-.953.101-.523.219-.953.258-.953.039 0 .125-.281.191-.629.066-.343.184-.761.258-.925.074-.168.21-.598.3-.954.09-.359.2-.699.247-.754.043-.054.156-.359.25-.68.09-.316.195-.573.234-.573.035 0 .152-.278.262-.61.105-.336.23-.633.277-.66.047-.031.156-.23.242-.45.09-.214.192-.39.23-.39.04 0 .134-.164.212-.36.078-.198.218-.402.32-.456.098-.051.176-.149.176-.215s.168-.266.37-.45c.34-.304.419-.327 1.075-.327.86 0 2.371-.168 2.684-.293.125-.051.488-.172.804-.266.317-.094.575-.207.575-.246 0-.043.226-.16.504-.258.273-.101.5-.219.5-.262 0-.043.046-.082.105-.082.055 0 .441-.156.852-.351.414-.192.777-.352.812-.352.04 0 .137-.058.227-.133a2 2 0 0 1 .507-.265c.192-.074.395-.184.45-.246.054-.059.304-.2.55-.309.25-.105.473-.223.5-.254.028-.031.457-.254.954-.492.496-.242.921-.473.953-.512.027-.039.207-.148.398-.234.192-.09.578-.297.852-.461.277-.164.68-.395.902-.508.219-.117.488-.265.602-.332.109-.066.707-.406 1.324-.754.62-.351 1.129-.676 1.129-.726 0-.051.058-.094.133-.094.18 0 1.367-1.219 1.367-1.402 0-.051.058-.149.125-.223.07-.07.187-.313.265-.531.075-.223.266-.684.426-1.028.156-.343.285-.664.285-.718 0-.055.04-.114.09-.13.047-.019.184-.238.305-.484.312-.644.586-1.129.68-1.199.042-.031.164-.21.269-.398.102-.188.262-.426.348-.528.363-.422 1.82-1.894 1.879-1.894.035 0 .27-.145.523-.324.64-.45.805-.555 1.266-.786.433-.214.574-.296 1.234-.722.234-.149.465-.274.512-.274.047 0 .14-.07.21-.152.067-.086.29-.23.489-.324.195-.094.406-.23.46-.301.06-.074.196-.191.313-.258.329-.191 1.082-.695 1.141-.766.027-.03.262-.218.527-.41.262-.191.59-.453.73-.578.141-.12.286-.222.325-.222.04 0 .188-.102.336-.227.45-.379.8-.652 1.637-1.273.441-.325.875-.66.968-.747.09-.082.266-.203.383-.265.117-.063.293-.192.39-.285.099-.09.333-.258.517-.368.187-.109.43-.269.546-.351a8.84 8.84 0 0 1 .54-.352c.187-.109.46-.3.613-.425.152-.125.304-.227.336-.227.035 0 .336-.215.672-.477.335-.261.68-.523.761-.578.325-.218 1.297-1.23 1.547-1.605.149-.223.32-.582.383-.805a7.75 7.75 0 0 1 .207-.601c.05-.11.18-.766.29-1.457.374-2.348.612-3.664.706-3.864.05-.11.164-.644.25-1.187.09-.543.203-1.063.254-1.153.05-.093.164-.601.254-1.125.09-.523.2-1 .242-1.054.043-.055.137-.414.203-.801.07-.387.184-.84.25-1.004.067-.168.203-.664.297-1.105.098-.442.211-.848.254-.903.043-.058.133-.336.195-.617.13-.547.254-.754.793-1.316.25-.262.535-.41 1.149-.602.453-.14.875-.305.941-.367.086-.078.152-1.035.227-3.164.054-1.676.14-3.102.187-3.16.047-.063.137-.371.207-.684.067-.312.207-.683.317-.82.105-.137.195-.297.195-.356 0-.062.078-.191.172-.293.097-.101.265-.336.37-.527.106-.187.224-.367.263-.394.035-.028.14-.196.234-.376.09-.18.2-.328.238-.328.043 0 .137-.144.215-.324.078-.18.203-.394.277-.48.516-.567.801-1.387.54-1.551-.051-.031-.172-.371-.27-.758-.102-.387-.21-.703-.25-.703-.035 0-.145-.324-.242-.727-.098-.398-.23-.777-.293-.84-.067-.062-.176-.378-.246-.703-.074-.32-.2-.687-.281-.812-.215-.324-.102-.754.304-1.152.887-.875 1.774-1.684 2.031-1.852.157-.102.38-.277.504-.387 1.118-1.023 1.786-1.254 3.621-1.254.899-.004 1.188-.039 1.403-.175.41-.266 1.523-1.36 1.523-1.5 0-.067.067-.16.145-.204.207-.117.703-1.105.844-1.687.273-1.094.761-1.781 1.367-1.914.164-.04.363-.117.441-.18.094-.078.688-.105 1.863-.086 2.246.035 2.203.063 2.051-1.285-.265-2.297.102-11.574.492-12.5.047-.11.164-.55.258-.976.094-.43.207-.801.254-.832.047-.028.156-.301.246-.602.086-.305.192-.55.23-.55.04 0 .133-.192.208-.427.07-.234.187-.496.257-.578.07-.082.184-.308.258-.504.075-.191.188-.418.25-.5.067-.082.18-.308.25-.504.075-.19.188-.417.25-.5.067-.082.18-.308.254-.503.07-.192.184-.418.25-.5.067-.082.203-.368.301-.63.098-.261.207-.476.242-.476.04 0 .149-.226.246-.5.102-.277.219-.504.262-.504.043 0 .11-.12.144-.273.114-.438 1.188-2.723 1.504-3.192.184-.273 1.051-1.152 1.567-1.59.09-.078.37-.218.629-.316.254-.098.46-.21.46-.25 0-.043.286-.152.63-.25.343-.094.671-.21.726-.258.055-.043.324-.136.602-.203a8.418 8.418 0 0 0 1.152-.414c.559-.25.684-.355.828-.691.094-.215.207-.395.25-.395.047 0 .16-.156.25-.351.094-.192.211-.352.262-.352.055 0 .121-.078.152-.176.051-.156.176-.32.668-.894.305-.352.684-.625 1.262-.907.57-.273.621-.28 2.312-.28 1.075 0 1.758.038 1.805.105.04.054.328.183.645.281.32.098.578.21.578.25 0 .043.156.133.347.203.196.07.407.18.477.25.07.066.316.203.55.309.235.105.427.226.427.273 0 .05.183.16.402.25.219.086.398.192.398.234 0 .04.184.157.403.254.218.102.402.22.402.266 0 .047.047.086.11.086.058 0 .312.137.554.3.246.169.48.302.52.302.066 0 1.043.597 1.27.773.054.047.28.172.5.281.218.11.437.258.48.328.043.067.136.125.207.125.07 0 .304.133.523.297.215.164.445.301.512.301.066.004.156.066.199.14.043.075.227.212.402.301.29.149.91.54 1.184.743.059.039.262.164.453.27.188.108.434.276.54.378.108.098.226.18.269.18.039 0 .132.058.207.125.074.07.402.304.734.523.328.219.668.457.75.535.082.075.399.313.7.532.929.671 1.417 1.066 2.062 1.675.25.235.484.426.523.426.067 0 .574.434 1.13.957.14.137.288.246.327.246.059 0 .547.426 1.239 1.078.128.125.27.227.308.227.067.004.574.434 1.129.96.145.134.29.247.328.247.059 0 .547.426 1.238 1.078.13.125.27.227.309.227.066 0 .574.43 1.129.957.144.136.293.246.328.246.117 0 1.531 1.344 1.95 1.855.23.278.71 1.254.835 1.692.067.23.153.465.196.52.039.054.144.394.234.753.09.36.223.813.3 1.004.075.195.192.496.255.672.168.441.773.808 1.629.988.398.082.816.192.925.242.114.051.563.172 1.004.266.442.09.844.2.903.238.054.043.503.153 1 .25.496.098.921.207.953.25.027.04.445.153.93.246 1.093.215 1.488.438 1.663.938.075.207.188.445.254.527.067.086.18.344.254.582.074.235.196.477.27.54.074.058.133.148.133.198 0 .102.402 1 1.12 2.497 1 2.078 1.083 2.261 1.083 2.37 0 .063.062.165.132.227.075.063.192.305.262.54.07.234.184.495.25.577.067.082.184.309.258.504.07.192.184.418.25.5.063.082.176.344.25.578.074.235.191.48.266.54.074.062.136.16.136.218 0 .059.137.403.309.766s.46.976.644 1.363c.891 1.887 1.145 2.453 1.204 2.695.035.149.105.266.148.266.047 0 .117.102.152.227.04.125.227.562.418.976.192.414.434.957.543 1.207.762 1.739 1.543 3.262 1.934 3.766.703.91 1.934 2.3 3.035 3.426.399.406.727.761.727.789 0 .023.425.48.949 1.011.523.532.953.993.953 1.024 0 .031.246.293.547.586.3.293.578.656.617.808.082.332-.133 1.41-.73 3.649-.22.812-.621 2.933-.743 3.918-.152 1.219-.046 2.379.27 2.976.422.793 1.45 1.93 2.14 2.364.196.12.376.246.403.28.172.208 1.32.634 2.066.763.48.086.946.191 1.032.238.085.047.52.137.957.2.441.062.96.179 1.152.257.195.078.644.215 1.004.305.355.09.695.199.75.242.055.043.234.11.398.148.168.04.586.203.93.364.344.164.66.296.7.296.241.012.46.602.589 1.59.082.586.184 1.16.23 1.27.047.11.16.394.25.633.09.238.266.546.395.687.242.262.32.313 1.07.727.239.129.496.297.57.375.079.078.204.14.282.14.078 0 .2.09.266.2.07.109.167.199.218.199.239 0 1.809 1.422 2.516 2.273.164.2.422.504.574.676.149.172.274.36.274.418 0 .055.093.156.203.227.11.066.199.19.199.269 0 .082.09.195.2.254.112.059.202.156.202.215 0 .062.137.273.309.476.172.2.43.508.574.688.668.812 2.629 2.746 2.883 2.844.152.058.441.078.637.046.195-.03 1.285.008 2.425.086 1.961.137 2.106.16 2.73.454.36.171.688.312.724.312.039 0 .152.074.25.168.101.09.265.215.363.273.101.063.332.2.515.313.184.11.446.3.586.426.137.125.29.226.332.226.047 0 .164.082.262.18.152.152 2.785 1.926 3.836 2.582.191.121.57.363.844.535.27.176.55.317.625.317.074 0 .133.046.133.097 0 .055.144.168.324.25.18.086.55.29.828.453.273.164.68.395.902.516.219.117.465.27.551.336.082.066.305.184.5.258.191.078.395.191.45.254.054.062.257.175.449.246.195.074.398.168.453.207.09.066.789.445 1.851 1 .195.101.938.46 1.653.797.718.34 1.37.656 1.453.71.082.055.25.141.375.196l.453.203c.12.055.293.145.375.2.082.058.308.171.5.253.191.082.418.195.5.25.082.055.308.172.5.254.195.086.578.277.851.43.278.152.864.472 1.305.71.438.239 1.047.587 1.352.77.3.184.734.426.96.535.223.11.465.27.536.356.07.086.187.156.261.156.07 0 .188.059.262.133.074.07.29.219.485.324.19.11.37.219.398.25.027.027.39.254.8.5.415.246.77.48.786.524.02.039.223.16.453.261.227.102.477.258.555.352.074.09.195.168.265.168.075 0 .192.058.266.133.074.074.324.246.55.379.938.542 1.887 1.144 1.919 1.214.015.043.218.16.449.262.23.102.48.262.555.356.078.09.175.164.222.164.043 0 .281.136.528.3.246.168.488.301.543.301.054 0 .128.07.16.153.031.082.117.152.191.152s.223.078.328.176c.106.101.364.257.567.355.203.098.394.215.422.262.03.047.382.281.78.52.403.238.766.495.81.566.042.07.132.129.199.129.066.004.296.136.515.3.215.165.438.301.492.301.055 0 .172.063.258.137.203.184 1.309.64 2.012.832.3.086.57.191.601.234.028.043.274.153.551.246.532.18 1.5.602 1.75.762.082.055.254.145.375.2.555.245.707.32 1.18.593.273.16.644.36.824.445.18.086.328.204.328.258 0 .059.047.106.106.106.117 0 1.18.668 1.347.847.141.153.465.356.672.426.098.031.176.09.176.125 0 .04.305.274.676.516.371.246.754.527.851.62.098.099.215.177.262.177.074 0 .2.097.828.636.09.078.313.227.5.332.188.102.399.266.469.364.074.097.172.175.223.175.12 0 1.027.622 1.12.766.044.063.212.168.38.238.164.067.3.164.3.207 0 .047.168.164.375.262s.465.258.57.356c.106.097.231.18.27.18.043 0 .278.136.524.3.246.168.496.3.554.3.063 0 .11.04.11.087 0 .047.203.168.453.273.246.102.45.215.45.25 0 .04.214.149.476.246.261.098.543.235.625.301.082.07.332.184.55.254.22.07.454.184.52.25s.328.184.578.258c.25.074.457.168.457.207 0 .039.168.125.375.191.207.067.555.223.778.348.218.125.523.254.675.289.149.035.274.11.274.164 0 .05.05.098.117.098.062 0 .434.152.824.34 1.399.671 2.04.964 2.106.964.035 0 .12.047.187.106.195.168 2.695 1.398 2.844 1.398.07 0 .133.04.133.09 0 .047.21.168.472.266.258.101.52.222.575.27.113.093.523.312 1.855.991.469.239.875.461.902.497.028.035.266.144.528.246.261.097.476.214.476.257 0 .043.2.157.45.25.246.098.449.204.453.235 0 .035.203.152.449.262.246.109.45.226.45.261s.214.145.476.246c.261.098.52.235.574.297.055.067.258.184.453.258.191.074.437.219.543.316.105.098.25.18.32.18.067 0 .184.059.254.125.074.07.324.215.559.317.234.105.426.222.426.265 0 .04.105.102.234.133.125.031.387.164.574.29.188.128.5.296.695.374.192.078.395.195.45.258.054.062.257.176.449.25.195.078.441.219.547.316.105.102.25.18.316.18.07 0 .184.059.258.129.074.07.324.21.559.316.234.106.425.223.425.262 0 .043.106.102.23.133.13.035.391.164.579.293.187.129.5.297.691.375.196.078.399.191.453.254.055.066.258.18.45.254.195.074.437.218.547.316.105.098.25.18.316.18.07 0 .184.058.258.129.074.066.324.21.558.316.235.102.426.215.426.254 0 .035.152.117.336.187.184.067.442.211.567.32.125.11.285.2.351.2s.274.101.457.23c.188.125.5.293.692.371.19.079.437.223.542.325.11.097.254.18.32.18.067 0 .184.054.259.124.07.07.324.211.558.317.23.105.426.215.426.25 0 .031.203.144.45.246.245.101.448.219.448.262 0 .043.215.156.477.257.262.098.512.239.555.313.047.074.144.137.222.137.082 0 .223.125.32.277.098.148.22.305.27.34.05.039-.023.308-.176.629-.144.312-.265.61-.265.664a.096.096 0 0 1-.094.097c-.05 0-.145.16-.207.352-.148.453-.711 1.055-.988 1.055-.118 0-.215-.035-.215-.078 0-.04-.27-.157-.602-.262-.328-.102-.597-.219-.597-.258 0-.039-.27-.16-.602-.266-.332-.105-.601-.218-.601-.25 0-.03-.247-.144-.551-.246-.301-.105-.551-.218-.551-.254 0-.035-.27-.144-.602-.246-.328-.097-.601-.214-.601-.257 0-.04-.246-.153-.551-.247-.3-.097-.55-.207-.55-.242 0-.039-.247-.148-.552-.242-.3-.098-.55-.207-.55-.246 0-.04-.188-.129-.414-.203a9.565 9.565 0 0 1-1.047-.426c-.348-.16-.703-.293-.785-.293-.086 0-.157-.047-.157-.098 0-.054-.246-.171-.55-.257-.305-.09-.551-.196-.551-.239 0-.039-.348-.156-.778-.254-.425-.101-.82-.218-.875-.261-.132-.102-2.015-.399-2.543-.399-.226 0-.414-.047-.414-.105 0-.13-1.48-.074-2.55.094-.989.156-1.754.332-1.754.41 0 .035-.188.148-.414.25-.516.226-.36.086-3.036 2.742-1.234 1.226-2.28 2.23-2.32 2.23-.043 0-.27.203-.504.453-.238.25-.468.454-.511.454-.047 0-.23.156-.414.351-.254.27-.41.352-.676.352-.5 0-1.739-.219-1.739-.305 0-.043-.261-.105-.578-.14a6.42 6.42 0 0 1-.89-.169c-.36-.113-.34 0-.547-3.05-.063-.942-.149-1.754-.188-1.809-.043-.055-.11-.508-.148-1.004a16.604 16.604 0 0 0-.203-1.605c-.328-1.727-.547-2.633-.692-2.914-.09-.164-.16-.364-.16-.442 0-.078-.113-.379-.25-.672-.14-.293-.297-.648-.351-.789-.051-.14-.141-.254-.2-.254-.054 0-.101-.062-.101-.132 0-.168-1.281-1.375-1.461-1.375a.283.283 0 0 1-.211-.125c-.043-.07-.238-.215-.43-.32a2.878 2.878 0 0 1-.484-.329c-.074-.07-.188-.129-.258-.129-.066 0-.21-.082-.32-.183-.11-.102-.41-.266-.668-.368-.262-.097-.477-.21-.477-.246 0-.039-.222-.148-.5-.25-.273-.097-.5-.21-.5-.25 0-.039-.16-.129-.36-.199-.198-.074-.562-.27-.812-.433-.441-.301-1.23-1.063-1.23-1.188 0-.035-.09-.168-.203-.297-.11-.129-.2-.285-.2-.347 0-.063-.078-.204-.18-.313a2.187 2.187 0 0 1-.316-.543c-.074-.195-.187-.398-.25-.453-.062-.055-.175-.258-.25-.453-.074-.192-.19-.395-.253-.45-.067-.058-.22-.304-.336-.554a14.492 14.492 0 0 0-.465-.879c-.578-.977-.758-1.3-.961-1.73-.121-.25-.246-.477-.285-.504-.035-.028-.149-.243-.25-.477-.106-.234-.22-.426-.262-.426-.04 0-.148-.203-.242-.453-.094-.246-.207-.45-.25-.45-.04 0-.149-.17-.238-.378-.09-.207-.301-.602-.465-.879a7.423 7.423 0 0 1-.391-.703c-.121-.273-.719-.852-.883-.852-.074 0-.133-.039-.133-.085 0-.051-.27-.165-.601-.258-.328-.094-.598-.211-.598-.262 0-.055-.062-.098-.14-.098-.184 0-1.2-.324-1.262-.402-.027-.035-.356-.152-.727-.258-.37-.105-.675-.222-.675-.258 0-.039-.262-.148-.579-.238-.316-.094-.597-.2-.625-.238-.027-.035-.32-.149-.652-.25-.328-.102-.629-.23-.66-.285-.035-.051-.508-.172-1.055-.266-.543-.09-1.035-.195-1.09-.227-.054-.035-.48-.093-.949-.128-1.015-.083-1.976-.235-2.254-.356a8.38 8.38 0 0 0-.898-.254c-.387-.09-.746-.203-.801-.246-.059-.043-.34-.156-.629-.254-.289-.094-.527-.203-.527-.242 0-.04-.227-.156-.5-.254-.278-.098-.5-.215-.5-.254 0-.043-.184-.137-.406-.21-.223-.071-.438-.184-.477-.247-.04-.062-.285-.234-.55-.379-.477-.265-.481-.265-.677-.07-.105.11-.195.23-.195.273 0 .067.711.825 2.66 2.84.133.14.246.305.246.371 0 .067.09.168.2.227.109.058.199.148.199.203 0 .082.18.344.777 1.152.043.055.164.235.27.399.101.164.226.344.27.402.382.48.788 1.078.788 1.16 0 .059.059.125.137.156.074.028.219.231.324.446.102.219.223.398.262.398.039 0 .148.149.238.328.094.18.203.348.242.375.13.082.797 1.09.797 1.2 0 .05.063.132.137.175.078.043.215.227.305.407.09.18.203.328.254.328.046 0 .109.078.144.176.082.25.293.562.438.656.07.043.125.137.125.207 0 .07.082.215.183.32.098.11.266.356.375.547.106.195.25.387.32.434.067.043.125.136.125.207 0 .066.082.21.18.32.098.105.27.351.375.547.11.191.246.383.309.422.062.043.168.21.238.379.066.164.164.3.211.3.05 0 .09.114.09.254 0 .137-.035.25-.074.25-.043 0-.16.203-.262.453-.102.246-.219.45-.254.45-.04 0-.133.172-.207.379-.195.542-.59.984-.848.94-.113-.019-.23-.065-.258-.105-.027-.035-.246-.132-.488-.207-.238-.078-.457-.203-.484-.273-.028-.074-.098-.133-.153-.133-.128 0-.714-.504-1.69-1.46-.419-.41-.786-.747-.817-.747-.032 0-.391-.328-.805-.726a92.821 92.821 0 0 0-1.73-1.633 84.52 84.52 0 0 1-1.579-1.477c-.324-.312-.77-.722-.996-.902-.601-.492-3.297-3.2-3.636-3.652-.16-.22-.372-.454-.47-.528-.093-.07-.175-.168-.175-.215 0-.05-.121-.218-.273-.379-.399-.418-1.028-1.156-1.028-1.207 0-.035-.965-1.254-1.367-1.73-.07-.082-.254-.305-.406-.496-.371-.461-2.813-2.89-3.79-3.774-.906-.816-3.55-3.433-3.55-3.511 0-.032-.441-.504-.977-1.051-1.437-1.473-3.468-3.613-3.843-4.055-.184-.21-.66-.715-1.059-1.117-.402-.402-.73-.754-.73-.781 0-.125-4.934-5.153-5.493-5.598a32.607 32.607 0 0 1-.582-.476c-.144-.125-.293-.227-.328-.227-.031 0-.215-.133-.41-.3-.191-.165-.402-.302-.469-.302-.066 0-.156-.054-.203-.125-.043-.07-.465-.386-.941-.707-1.121-.754-1.719-.91-4.297-1.12-1.129-.094-2.23-.212-2.453-.258-.219-.051-.82-.137-1.332-.192-.653-.066-1.043-.164-1.301-.32-.39-.235-1.523-1.348-1.523-1.496 0-.047-.102-.164-.227-.266-.121-.102-.426-.43-.676-.73-.246-.301-.539-.645-.648-.762-.11-.117-.496-.543-.852-.942-.855-.957-1.863-2.03-3.441-3.675-.711-.735-1.406-1.512-1.547-1.723-.527-.789-.586-.894-.715-1.238a16.965 16.965 0 0 0-.316-.754 3.806 3.806 0 0 1-.25-.723c-.086-.422-.598-.758-1.493-.976-.382-.094-.746-.207-.8-.25-.055-.047-.418-.16-.805-.254-.383-.098-.746-.207-.8-.246-.055-.043-.415-.157-.802-.258-.386-.098-.746-.215-.8-.254-.055-.04-.348-.129-.653-.2-.3-.066-.648-.187-.77-.261-.304-.191-.503-.176-.624.05-.117.216.11 7.75.3 10.2.063.773.169 2.863.235 4.648l.121 3.239.293.289c.211.203 12.988 10.488 14.606 11.758.347.27.816.675 1.015.875.121.125.258.226.3.226.13 0 .852.746.852.879 0 .07.047.125.11.125.07 0 .09.164.055.477-.098.851-.454 4.488-.461 4.695-.012.441-.434.742-1.266.906-.438.082-.863.195-.953.242-.09.051-.563.168-1.05.262-.493.098-.938.207-.993.25-.055.043-.504.156-1 .25-.496.098-.95.211-1.004.254-.055.039-.504.152-1 .25-.496.094-.945.207-1 .25-.059.043-.508.156-1.004.25-.496.098-.945.21-1 .254-.055.039-.508.152-1.004.25s-.945.207-1 .25c-.055.043-.508.156-1 .25-.496.098-.95.21-1.004.25-.054.043-.48.152-.949.25-.492.098-.902.238-.977.336-.136.172-.085.972.075 1.168.043.054.16.508.254 1.004.097.496.21.949.25 1.004.039.054.148.484.242.953.09.468.207.945.258 1.054.054.11.16.524.242.922.156.754.504 1.387.883 1.59l1.039.586c.449.258.863.469.918.469.058 0 .164.054.238.125.074.066.539.328 1.031.578.496.246.926.48.957.52.028.042.266.167.524.28.254.114.488.243.515.286.028.047.23.14.453.215.223.074.407.168.407.203 0 .039.191.156.425.258.235.105.45.218.477.254.027.035.254.16.5.28.625.305 1.133.587 1.254.692.058.047.316.172.578.27.258.101.473.215.473.258 0 .043.191.152.425.246.235.093.45.203.477.238.027.039.25.156.5.266.246.109.496.246.55.308.055.063.259.172.45.25.195.074.41.195.484.266a.47.47 0 0 0 .262.129c.07 0 .281.105.469.23.187.125.496.293.687.371.196.078.375.172.403.211.05.07.535.332 1.3.703.25.121.473.25.504.285.028.04.207.133.399.211.191.079.504.243.691.371.188.125.399.227.469.227.07 0 .187.063.262.137.074.074.316.219.535.316.219.102.465.238.547.301.082.066.308.18.5.254.195.074.375.164.402.203.125.16 1.598.79 2.004.852.246.039.496.105.55.148.055.04.552.156 1.102.25.551.098 1.047.21 1.102.254.055.039.574.152 1.152.25.578.094 1.094.207 1.149.25.058.039.574.156 1.152.254.578.097 1.098.21 1.152.25.055.039.575.152 1.153.254.578.097 1.074.21 1.101.25.028.039.547.152 1.153.254.605.101 1.125.214 1.152.246.027.035.523.144 1.101.242.579.101 1.098.219 1.153.262.055.043.57.156 1.152.25.578.093 1.094.207 1.149.246.054.043.574.156 1.152.258.578.097 1.074.21 1.102.25.027.042.546.152 1.152.253.605.098 1.125.207 1.152.247.028.039.524.152 1.102.253.578.098 1.074.211 1.101.247.028.035.547.144 1.153.246.605.097 1.148.21 1.203.254.055.042.55.156 1.101.253.551.098 1.047.207 1.102.25.055.04.594.153 1.2.254.609.102 1.124.215 1.151.254.028.035.524.149 1.102.246.578.098 1.098.215 1.152.254.055.04.586.156 1.176.258.594.098 1.078.211 1.078.25 0 .035.52.149 1.153.246.632.102 1.152.215 1.152.258 0 .039.133.102.3.14.31.067.419.25.15.25-.083 0-.15.04-.15.09 0 .047-.429.168-.952.27-.524.098-.95.21-.95.246 0 .04-.418.152-.93.25-.507.098-.968.211-1.023.254-.058.039-.507.156-1.004.254-.496.094-.921.207-.949.242-.027.04-.48.152-1.004.25-.523.102-.972.215-1 .258-.05.07-1.375.305-1.62.285-.075-.008-.36-.055-.634-.102Zm0 0"
     id="path10" />
  <path
     d="M116.78 316.5h-16.234c1.47-3.25 2.93-6.507 4.391-9.78 1.457-3.27 2.91-6.52 4.36-9.75h-7.47v-4.72h14.688l-8.75 19.376h9.016ZM138.603 316.5H126.07v-24.25h12.125v4.86h-7.28v4.844h6.374v4.844h-6.375v4.86h7.688ZM160.64 316.5l-4.875-9.25h-2.344v9.25h-4.844v-24.25h9.563c1.437 0 2.66.306 3.671.907 1.008.594 1.797 1.375 2.36 2.344.562.96.91 2 1.047 3.125a8.154 8.154 0 0 1-.266 3.281 7.081 7.081 0 0 1-1.562 2.844c-.731.824-1.696 1.406-2.891 1.75l5.64 10Zm-7.22-13.968h4.266c.657 0 1.18-.176 1.579-.531a2.7 2.7 0 0 0 .796-1.36 3.428 3.428 0 0 0 0-1.64 2.638 2.638 0 0 0-.796-1.344c-.399-.363-.922-.547-1.579-.547h-4.265ZM185.886 302.532l9.563-10.64h1.53V316.5h-4.921l.031-13.531-6.203 6.515-6.203-6.515v13.53h-4.906v-24.608h1.547ZM205.684 316.5l10.204-25.124h.5l10.218 25.125h-5.468l-.985-2.61h-8.031l-.953 2.61Zm8.204-7.155h4.468l-2.203-6.297ZM244.255 316.5h-4.843v-19.39h-6.047v-4.812h16.922v4.812h-6.032ZM268.218 316.5h-4.843v-19.39h-6.047v-4.812h16.922v4.812h-6.032Zm0 0"
     fill="#fff"
     id="path11" />
</svg>
